<mxfile host="app.diagrams.net" modified="2024-05-08T18:36:24.204Z" agent="Mozilla/5.0 (Macintosh; Intel Mac OS X 10.15; rv:125.0) Gecko/20100101 Firefox/125.0" etag="gw8TFIXPDaMl3s4RxtD0" version="24.3.1" type="device">
  <diagram name="Page-1" id="PPZwAgYZcOJoiSN3McR6">
    <mxGraphModel dx="1735" dy="984" grid="1" gridSize="10" guides="1" tooltips="1" connect="1" arrows="1" fold="1" page="1" pageScale="1" pageWidth="850" pageHeight="1100" math="0" shadow="0">
      <root>
        <mxCell id="0" />
        <mxCell id="1" parent="0" />
        <mxCell id="L3VqqMxLOk5BLTr2aD1z-3" value="t1" style="edgeStyle=orthogonalEdgeStyle;rounded=0;orthogonalLoop=1;jettySize=auto;html=1;exitX=1;exitY=0.5;exitDx=0;exitDy=0;entryX=0;entryY=0.5;entryDx=0;entryDy=0;" parent="1" source="L3VqqMxLOk5BLTr2aD1z-1" target="L3VqqMxLOk5BLTr2aD1z-2" edge="1">
          <mxGeometry relative="1" as="geometry" />
        </mxCell>
        <mxCell id="L3VqqMxLOk5BLTr2aD1z-1" value="&lt;div&gt;v0&lt;/div&gt;&lt;div&gt;m0(p1)&lt;/div&gt;&lt;div&gt;pre(v0) = {}&lt;/div&gt;&lt;div&gt;pi(v0) = p1&lt;br&gt;&lt;/div&gt;" style="rounded=0;whiteSpace=wrap;html=1;" parent="1" vertex="1">
          <mxGeometry x="25" y="1120" width="140" height="100" as="geometry" />
        </mxCell>
        <mxCell id="L3VqqMxLOk5BLTr2aD1z-5" style="edgeStyle=orthogonalEdgeStyle;rounded=0;orthogonalLoop=1;jettySize=auto;html=1;exitX=1;exitY=0.5;exitDx=0;exitDy=0;" parent="1" source="L3VqqMxLOk5BLTr2aD1z-2" target="L3VqqMxLOk5BLTr2aD1z-4" edge="1">
          <mxGeometry relative="1" as="geometry" />
        </mxCell>
        <mxCell id="L3VqqMxLOk5BLTr2aD1z-6" value="t2" style="edgeLabel;html=1;align=center;verticalAlign=middle;resizable=0;points=[];" parent="L3VqqMxLOk5BLTr2aD1z-5" vertex="1" connectable="0">
          <mxGeometry x="-0.1333" y="-3" relative="1" as="geometry">
            <mxPoint as="offset" />
          </mxGeometry>
        </mxCell>
        <mxCell id="L3VqqMxLOk5BLTr2aD1z-2" value="&lt;div&gt;v1&lt;/div&gt;&lt;div&gt;m1(p2+p3)&lt;/div&gt;&lt;div&gt;pre(v1) = {v0}&lt;/div&gt;&lt;div&gt;pi(v1) = p2+p3&lt;/div&gt;" style="rounded=0;whiteSpace=wrap;html=1;" parent="1" vertex="1">
          <mxGeometry x="245" y="1120" width="140" height="100" as="geometry" />
        </mxCell>
        <mxCell id="L3VqqMxLOk5BLTr2aD1z-8" style="edgeStyle=orthogonalEdgeStyle;rounded=0;orthogonalLoop=1;jettySize=auto;html=1;exitX=1;exitY=0.5;exitDx=0;exitDy=0;" parent="1" source="L3VqqMxLOk5BLTr2aD1z-4" target="L3VqqMxLOk5BLTr2aD1z-7" edge="1">
          <mxGeometry relative="1" as="geometry" />
        </mxCell>
        <mxCell id="L3VqqMxLOk5BLTr2aD1z-9" value="t3" style="edgeLabel;html=1;align=center;verticalAlign=middle;resizable=0;points=[];" parent="L3VqqMxLOk5BLTr2aD1z-8" vertex="1" connectable="0">
          <mxGeometry x="-0.1333" y="-1" relative="1" as="geometry">
            <mxPoint as="offset" />
          </mxGeometry>
        </mxCell>
        <mxCell id="L3VqqMxLOk5BLTr2aD1z-4" value="&lt;div&gt;v2&lt;/div&gt;&lt;div&gt;m2(p3+p4)&lt;/div&gt;&lt;div&gt;pre(v2) = {v0,v1}&lt;/div&gt;&lt;div&gt;pi(v2) = p3+p4&lt;br&gt;&lt;/div&gt;" style="rounded=0;whiteSpace=wrap;html=1;" parent="1" vertex="1">
          <mxGeometry x="465" y="1120" width="140" height="100" as="geometry" />
        </mxCell>
        <mxCell id="L3VqqMxLOk5BLTr2aD1z-13" style="edgeStyle=orthogonalEdgeStyle;rounded=0;orthogonalLoop=1;jettySize=auto;html=1;exitX=0.5;exitY=1;exitDx=0;exitDy=0;entryX=0.5;entryY=0;entryDx=0;entryDy=0;" parent="1" source="L3VqqMxLOk5BLTr2aD1z-7" target="L3VqqMxLOk5BLTr2aD1z-11" edge="1">
          <mxGeometry relative="1" as="geometry" />
        </mxCell>
        <mxCell id="L3VqqMxLOk5BLTr2aD1z-14" value="t4" style="edgeLabel;html=1;align=center;verticalAlign=middle;resizable=0;points=[];" parent="L3VqqMxLOk5BLTr2aD1z-13" vertex="1" connectable="0">
          <mxGeometry x="-0.2" relative="1" as="geometry">
            <mxPoint as="offset" />
          </mxGeometry>
        </mxCell>
        <mxCell id="L3VqqMxLOk5BLTr2aD1z-7" value="&lt;div&gt;v3&lt;/div&gt;&lt;div&gt;m3(p3+p5)&lt;/div&gt;&lt;div&gt;pre(v3) = {v0,v1,v2}&lt;/div&gt;&lt;div&gt;pi(v3) = p3+p5&lt;br&gt;&lt;/div&gt;" style="rounded=0;whiteSpace=wrap;html=1;" parent="1" vertex="1">
          <mxGeometry x="685" y="1120" width="140" height="100" as="geometry" />
        </mxCell>
        <mxCell id="L3VqqMxLOk5BLTr2aD1z-16" style="edgeStyle=orthogonalEdgeStyle;rounded=0;orthogonalLoop=1;jettySize=auto;html=1;exitX=0;exitY=0.5;exitDx=0;exitDy=0;entryX=1;entryY=0.5;entryDx=0;entryDy=0;" parent="1" source="L3VqqMxLOk5BLTr2aD1z-11" target="L3VqqMxLOk5BLTr2aD1z-15" edge="1">
          <mxGeometry relative="1" as="geometry" />
        </mxCell>
        <mxCell id="L3VqqMxLOk5BLTr2aD1z-17" value="t5" style="edgeLabel;html=1;align=center;verticalAlign=middle;resizable=0;points=[];" parent="L3VqqMxLOk5BLTr2aD1z-16" vertex="1" connectable="0">
          <mxGeometry x="0.1" relative="1" as="geometry">
            <mxPoint as="offset" />
          </mxGeometry>
        </mxCell>
        <mxCell id="L3VqqMxLOk5BLTr2aD1z-11" value="&lt;div&gt;v4&lt;/div&gt;&lt;div&gt;m4(p3+p6)&lt;/div&gt;&lt;div&gt;pre(v4) = {v0,v1,v2,v3}&lt;/div&gt;&lt;div&gt;pi(v4) = p3+p6&lt;br&gt;&lt;/div&gt;" style="rounded=0;whiteSpace=wrap;html=1;" parent="1" vertex="1">
          <mxGeometry x="685" y="1260" width="140" height="100" as="geometry" />
        </mxCell>
        <mxCell id="L3VqqMxLOk5BLTr2aD1z-19" value="t6" style="edgeStyle=orthogonalEdgeStyle;rounded=0;orthogonalLoop=1;jettySize=auto;html=1;exitX=0;exitY=0.5;exitDx=0;exitDy=0;" parent="1" source="L3VqqMxLOk5BLTr2aD1z-15" target="L3VqqMxLOk5BLTr2aD1z-18" edge="1">
          <mxGeometry relative="1" as="geometry" />
        </mxCell>
        <mxCell id="L3VqqMxLOk5BLTr2aD1z-15" value="&lt;div&gt;v5&lt;/div&gt;&lt;div&gt;m5(p3+p7)&lt;/div&gt;&lt;div&gt;pre(v5) = {v0,v1,v2,v3,v4}&lt;/div&gt;&lt;div&gt;pi(v5) = p3+p7&lt;br&gt;&lt;/div&gt;" style="rounded=0;whiteSpace=wrap;html=1;" parent="1" vertex="1">
          <mxGeometry x="465" y="1260" width="140" height="100" as="geometry" />
        </mxCell>
        <mxCell id="L3VqqMxLOk5BLTr2aD1z-21" style="edgeStyle=orthogonalEdgeStyle;rounded=0;orthogonalLoop=1;jettySize=auto;html=1;exitX=0;exitY=0.5;exitDx=0;exitDy=0;entryX=1;entryY=0.5;entryDx=0;entryDy=0;" parent="1" source="L3VqqMxLOk5BLTr2aD1z-18" target="L3VqqMxLOk5BLTr2aD1z-20" edge="1">
          <mxGeometry relative="1" as="geometry" />
        </mxCell>
        <mxCell id="L3VqqMxLOk5BLTr2aD1z-24" value="t7" style="edgeLabel;html=1;align=center;verticalAlign=middle;resizable=0;points=[];" parent="L3VqqMxLOk5BLTr2aD1z-21" vertex="1" connectable="0">
          <mxGeometry x="-0.025" y="5" relative="1" as="geometry">
            <mxPoint as="offset" />
          </mxGeometry>
        </mxCell>
        <mxCell id="L3VqqMxLOk5BLTr2aD1z-18" value="&lt;div&gt;v6&lt;/div&gt;&lt;div&gt;m6(p3+p8)&lt;/div&gt;&lt;div&gt;pre(v6) = {v0,v1,v2,v3,v4,v5}&lt;/div&gt;&lt;div&gt;pi(v6) = p3+p8&lt;br&gt;&lt;/div&gt;" style="rounded=0;whiteSpace=wrap;html=1;" parent="1" vertex="1">
          <mxGeometry x="245" y="1260" width="140" height="100" as="geometry" />
        </mxCell>
        <mxCell id="L3VqqMxLOk5BLTr2aD1z-23" style="edgeStyle=orthogonalEdgeStyle;rounded=0;orthogonalLoop=1;jettySize=auto;html=1;exitX=0.5;exitY=1;exitDx=0;exitDy=0;entryX=0.5;entryY=0;entryDx=0;entryDy=0;" parent="1" source="L3VqqMxLOk5BLTr2aD1z-20" target="L3VqqMxLOk5BLTr2aD1z-22" edge="1">
          <mxGeometry relative="1" as="geometry" />
        </mxCell>
        <mxCell id="L3VqqMxLOk5BLTr2aD1z-25" value="t8" style="edgeLabel;html=1;align=center;verticalAlign=middle;resizable=0;points=[];" parent="L3VqqMxLOk5BLTr2aD1z-23" vertex="1" connectable="0">
          <mxGeometry x="-0.05" y="2" relative="1" as="geometry">
            <mxPoint as="offset" />
          </mxGeometry>
        </mxCell>
        <mxCell id="L3VqqMxLOk5BLTr2aD1z-20" value="&lt;div&gt;v7&lt;/div&gt;&lt;div&gt;m7(p3+p9)&lt;/div&gt;&lt;div&gt;pre(v7) = {v0,v1,v2,v3,v4,v5,v6}&lt;/div&gt;&lt;div&gt;pi(v7) = p3+p9&lt;br&gt;&lt;/div&gt;" style="rounded=0;whiteSpace=wrap;html=1;" parent="1" vertex="1">
          <mxGeometry x="25" y="1260" width="140" height="100" as="geometry" />
        </mxCell>
        <mxCell id="L3VqqMxLOk5BLTr2aD1z-29" value="t9" style="edgeStyle=orthogonalEdgeStyle;rounded=0;orthogonalLoop=1;jettySize=auto;html=1;exitX=1;exitY=0.5;exitDx=0;exitDy=0;entryX=0;entryY=0.5;entryDx=0;entryDy=0;" parent="1" source="L3VqqMxLOk5BLTr2aD1z-22" target="L3VqqMxLOk5BLTr2aD1z-26" edge="1">
          <mxGeometry relative="1" as="geometry" />
        </mxCell>
        <mxCell id="L3VqqMxLOk5BLTr2aD1z-22" value="&lt;div&gt;v8&lt;/div&gt;&lt;div&gt;m8(p3+p10)&lt;/div&gt;&lt;div&gt;pre(v8) = {v0,v1,v2,v3,v4,v5,v6,v7}&lt;/div&gt;&lt;div&gt;pi(v8) = p3+p10&lt;br&gt;&lt;/div&gt;" style="rounded=0;whiteSpace=wrap;html=1;" parent="1" vertex="1">
          <mxGeometry x="25" y="1400" width="140" height="100" as="geometry" />
        </mxCell>
        <mxCell id="L3VqqMxLOk5BLTr2aD1z-30" style="edgeStyle=orthogonalEdgeStyle;rounded=0;orthogonalLoop=1;jettySize=auto;html=1;exitX=1;exitY=0.5;exitDx=0;exitDy=0;" parent="1" source="L3VqqMxLOk5BLTr2aD1z-26" target="L3VqqMxLOk5BLTr2aD1z-27" edge="1">
          <mxGeometry relative="1" as="geometry" />
        </mxCell>
        <mxCell id="L3VqqMxLOk5BLTr2aD1z-32" value="t10" style="edgeLabel;html=1;align=center;verticalAlign=middle;resizable=0;points=[];" parent="L3VqqMxLOk5BLTr2aD1z-30" vertex="1" connectable="0">
          <mxGeometry x="0.025" y="1" relative="1" as="geometry">
            <mxPoint as="offset" />
          </mxGeometry>
        </mxCell>
        <mxCell id="L3VqqMxLOk5BLTr2aD1z-26" value="&lt;div&gt;v9&lt;/div&gt;&lt;div&gt;m9(p3+p11)&lt;/div&gt;&lt;div&gt;pre(v9) = {v0,v1,v2,v3,&lt;/div&gt;&lt;div&gt;v4,v5,v6,v7,v8}&lt;/div&gt;&lt;div&gt;pi(v9) = p3+p11&lt;br&gt;&lt;/div&gt;" style="rounded=0;whiteSpace=wrap;html=1;" parent="1" vertex="1">
          <mxGeometry x="245" y="1400" width="140" height="100" as="geometry" />
        </mxCell>
        <mxCell id="L3VqqMxLOk5BLTr2aD1z-31" style="edgeStyle=orthogonalEdgeStyle;rounded=0;orthogonalLoop=1;jettySize=auto;html=1;exitX=1;exitY=0.5;exitDx=0;exitDy=0;" parent="1" source="L3VqqMxLOk5BLTr2aD1z-27" target="L3VqqMxLOk5BLTr2aD1z-28" edge="1">
          <mxGeometry relative="1" as="geometry" />
        </mxCell>
        <mxCell id="L3VqqMxLOk5BLTr2aD1z-35" value="t12" style="edgeLabel;html=1;align=center;verticalAlign=middle;resizable=0;points=[];" parent="L3VqqMxLOk5BLTr2aD1z-31" vertex="1" connectable="0">
          <mxGeometry x="-0.075" y="-3" relative="1" as="geometry">
            <mxPoint as="offset" />
          </mxGeometry>
        </mxCell>
        <mxCell id="L3VqqMxLOk5BLTr2aD1z-33" value="t11" style="edgeStyle=orthogonalEdgeStyle;rounded=0;orthogonalLoop=1;jettySize=auto;html=1;exitX=1;exitY=0.25;exitDx=0;exitDy=0;entryX=0;entryY=0.25;entryDx=0;entryDy=0;" parent="1" source="L3VqqMxLOk5BLTr2aD1z-27" target="L3VqqMxLOk5BLTr2aD1z-28" edge="1">
          <mxGeometry relative="1" as="geometry" />
        </mxCell>
        <mxCell id="L3VqqMxLOk5BLTr2aD1z-34" value="t13" style="edgeStyle=orthogonalEdgeStyle;rounded=0;orthogonalLoop=1;jettySize=auto;html=1;exitX=1;exitY=0.75;exitDx=0;exitDy=0;entryX=0;entryY=0.75;entryDx=0;entryDy=0;" parent="1" source="L3VqqMxLOk5BLTr2aD1z-27" target="L3VqqMxLOk5BLTr2aD1z-28" edge="1">
          <mxGeometry relative="1" as="geometry" />
        </mxCell>
        <mxCell id="L3VqqMxLOk5BLTr2aD1z-27" value="&lt;div&gt;v10&lt;/div&gt;&lt;div&gt;m10(p3+p12)&lt;/div&gt;&lt;div&gt;pre(v10) = {v0,v1,v2,v3&lt;/div&gt;&lt;div&gt;v4,v5,v6,v7,v8,v9}&lt;/div&gt;&lt;div&gt;pi(v10) = p3+p12&lt;br&gt;&lt;/div&gt;" style="rounded=0;whiteSpace=wrap;html=1;shadow=1;" parent="1" vertex="1">
          <mxGeometry x="465" y="1400" width="140" height="100" as="geometry" />
        </mxCell>
        <mxCell id="L3VqqMxLOk5BLTr2aD1z-37" style="edgeStyle=orthogonalEdgeStyle;rounded=0;orthogonalLoop=1;jettySize=auto;html=1;exitX=0.5;exitY=1;exitDx=0;exitDy=0;entryX=0.5;entryY=0;entryDx=0;entryDy=0;" parent="1" source="L3VqqMxLOk5BLTr2aD1z-28" target="L3VqqMxLOk5BLTr2aD1z-36" edge="1">
          <mxGeometry relative="1" as="geometry" />
        </mxCell>
        <mxCell id="L3VqqMxLOk5BLTr2aD1z-38" value="t14" style="edgeLabel;html=1;align=center;verticalAlign=middle;resizable=0;points=[];" parent="L3VqqMxLOk5BLTr2aD1z-37" vertex="1" connectable="0">
          <mxGeometry x="-0.25" y="-3" relative="1" as="geometry">
            <mxPoint as="offset" />
          </mxGeometry>
        </mxCell>
        <mxCell id="L3VqqMxLOk5BLTr2aD1z-28" value="&lt;div&gt;v11&lt;/div&gt;&lt;div&gt;m11(p3+wp13)&lt;/div&gt;&lt;div&gt;pre(v11) = {v0,v1,v2,v3,&amp;nbsp;&lt;/div&gt;&lt;div&gt;v4,v5,v6,v7,v8,v9,v10}&lt;/div&gt;&lt;div&gt;pi(v11) = p3+wp13&lt;br&gt;&lt;/div&gt;" style="rounded=0;whiteSpace=wrap;html=1;" parent="1" vertex="1">
          <mxGeometry x="685" y="1400" width="140" height="100" as="geometry" />
        </mxCell>
        <mxCell id="L3VqqMxLOk5BLTr2aD1z-40" style="edgeStyle=orthogonalEdgeStyle;rounded=0;orthogonalLoop=1;jettySize=auto;html=1;exitX=0;exitY=0.5;exitDx=0;exitDy=0;entryX=1;entryY=0.5;entryDx=0;entryDy=0;" parent="1" source="L3VqqMxLOk5BLTr2aD1z-36" target="L3VqqMxLOk5BLTr2aD1z-39" edge="1">
          <mxGeometry relative="1" as="geometry" />
        </mxCell>
        <mxCell id="L3VqqMxLOk5BLTr2aD1z-41" value="t15" style="edgeLabel;html=1;align=center;verticalAlign=middle;resizable=0;points=[];" parent="L3VqqMxLOk5BLTr2aD1z-40" vertex="1" connectable="0">
          <mxGeometry x="0.05" y="3" relative="1" as="geometry">
            <mxPoint as="offset" />
          </mxGeometry>
        </mxCell>
        <mxCell id="L3VqqMxLOk5BLTr2aD1z-36" value="&lt;div&gt;v12&lt;/div&gt;&lt;div&gt;m12(p3+p14)&lt;/div&gt;&lt;div&gt;pre(v12) = {v0,v1,v2,v3,&lt;/div&gt;&lt;div&gt;v4,v5,v6,v7,v8,v9,v10,&lt;/div&gt;&lt;div&gt;v11}&lt;/div&gt;&lt;div&gt;pi(v12) = p3+p14&lt;br&gt;&lt;/div&gt;" style="rounded=0;whiteSpace=wrap;html=1;" parent="1" vertex="1">
          <mxGeometry x="685" y="1540" width="140" height="100" as="geometry" />
        </mxCell>
        <mxCell id="L3VqqMxLOk5BLTr2aD1z-43" style="edgeStyle=orthogonalEdgeStyle;rounded=0;orthogonalLoop=1;jettySize=auto;html=1;exitX=0;exitY=0.5;exitDx=0;exitDy=0;" parent="1" source="L3VqqMxLOk5BLTr2aD1z-39" target="L3VqqMxLOk5BLTr2aD1z-42" edge="1">
          <mxGeometry relative="1" as="geometry" />
        </mxCell>
        <mxCell id="L3VqqMxLOk5BLTr2aD1z-48" value="t17" style="edgeLabel;html=1;align=center;verticalAlign=middle;resizable=0;points=[];" parent="L3VqqMxLOk5BLTr2aD1z-43" vertex="1" connectable="0">
          <mxGeometry x="0.025" y="-3" relative="1" as="geometry">
            <mxPoint as="offset" />
          </mxGeometry>
        </mxCell>
        <mxCell id="L3VqqMxLOk5BLTr2aD1z-45" style="edgeStyle=orthogonalEdgeStyle;rounded=0;orthogonalLoop=1;jettySize=auto;html=1;exitX=0;exitY=0.25;exitDx=0;exitDy=0;entryX=1;entryY=0.25;entryDx=0;entryDy=0;" parent="1" source="L3VqqMxLOk5BLTr2aD1z-39" target="L3VqqMxLOk5BLTr2aD1z-42" edge="1">
          <mxGeometry relative="1" as="geometry" />
        </mxCell>
        <mxCell id="L3VqqMxLOk5BLTr2aD1z-47" value="t16" style="edgeLabel;html=1;align=center;verticalAlign=middle;resizable=0;points=[];" parent="L3VqqMxLOk5BLTr2aD1z-45" vertex="1" connectable="0">
          <mxGeometry x="0.025" y="-1" relative="1" as="geometry">
            <mxPoint as="offset" />
          </mxGeometry>
        </mxCell>
        <mxCell id="L3VqqMxLOk5BLTr2aD1z-46" style="edgeStyle=orthogonalEdgeStyle;rounded=0;orthogonalLoop=1;jettySize=auto;html=1;exitX=0;exitY=0.75;exitDx=0;exitDy=0;entryX=1;entryY=0.75;entryDx=0;entryDy=0;" parent="1" source="L3VqqMxLOk5BLTr2aD1z-39" target="L3VqqMxLOk5BLTr2aD1z-42" edge="1">
          <mxGeometry relative="1" as="geometry" />
        </mxCell>
        <mxCell id="L3VqqMxLOk5BLTr2aD1z-49" value="t18" style="edgeLabel;html=1;align=center;verticalAlign=middle;resizable=0;points=[];" parent="L3VqqMxLOk5BLTr2aD1z-46" vertex="1" connectable="0">
          <mxGeometry x="-0.05" y="4" relative="1" as="geometry">
            <mxPoint y="-9" as="offset" />
          </mxGeometry>
        </mxCell>
        <mxCell id="L3VqqMxLOk5BLTr2aD1z-39" value="&lt;div&gt;v13&lt;/div&gt;&lt;div&gt;m13(p3+p15)&lt;/div&gt;&lt;div&gt;pre(v13) = {v0,v1,v2,v3,&lt;/div&gt;&lt;div&gt;v4,v5,v6,v7,v8,v9,v10,&lt;/div&gt;&lt;div&gt;v11,v12}&lt;/div&gt;&lt;div&gt;pi(v13) = p3+p15&lt;br&gt;&lt;/div&gt;" style="rounded=0;whiteSpace=wrap;html=1;" parent="1" vertex="1">
          <mxGeometry x="465" y="1540" width="140" height="100" as="geometry" />
        </mxCell>
        <mxCell id="L3VqqMxLOk5BLTr2aD1z-51" value="t19" style="edgeStyle=orthogonalEdgeStyle;rounded=0;orthogonalLoop=1;jettySize=auto;html=1;exitX=0;exitY=0.5;exitDx=0;exitDy=0;entryX=1;entryY=0.5;entryDx=0;entryDy=0;" parent="1" source="L3VqqMxLOk5BLTr2aD1z-42" target="L3VqqMxLOk5BLTr2aD1z-50" edge="1">
          <mxGeometry relative="1" as="geometry" />
        </mxCell>
        <mxCell id="L3VqqMxLOk5BLTr2aD1z-42" value="&lt;div&gt;v14&lt;/div&gt;&lt;div&gt;m14(p3+p16)&lt;/div&gt;&lt;div&gt;pre(v14) = {v0,v1,v2,v3,&lt;div&gt;v4,v5,v6,v7,v8,v9,v10,&lt;/div&gt;&lt;div&gt;v11,v12,v13}&lt;/div&gt;&lt;/div&gt;&lt;div&gt;pi(v14) = p3+p16&lt;br&gt;&lt;/div&gt;" style="rounded=0;whiteSpace=wrap;html=1;" parent="1" vertex="1">
          <mxGeometry x="245" y="1540" width="140" height="100" as="geometry" />
        </mxCell>
        <mxCell id="L3VqqMxLOk5BLTr2aD1z-53" value="t20" style="edgeStyle=orthogonalEdgeStyle;rounded=0;orthogonalLoop=1;jettySize=auto;html=1;exitX=0.5;exitY=1;exitDx=0;exitDy=0;entryX=0.5;entryY=0;entryDx=0;entryDy=0;" parent="1" source="L3VqqMxLOk5BLTr2aD1z-50" target="L3VqqMxLOk5BLTr2aD1z-52" edge="1">
          <mxGeometry x="-0.4634" y="5" relative="1" as="geometry">
            <mxPoint as="offset" />
          </mxGeometry>
        </mxCell>
        <mxCell id="L3VqqMxLOk5BLTr2aD1z-50" value="&lt;div&gt;v15&lt;/div&gt;&lt;div&gt;m15(p3+p17)&lt;/div&gt;&lt;div&gt;pre(v15) = {v0,v1,v2,v3,&lt;div&gt;v4,v5,v6,v7,v8,v9,v10,&lt;/div&gt;&lt;div&gt;v11,v12,v13,v14}&lt;/div&gt;&lt;/div&gt;&lt;div&gt;pi(v15) = p3+p17&lt;br&gt;&lt;/div&gt;" style="rounded=0;whiteSpace=wrap;html=1;" parent="1" vertex="1">
          <mxGeometry x="25" y="1539" width="140" height="100" as="geometry" />
        </mxCell>
        <mxCell id="L3VqqMxLOk5BLTr2aD1z-55" value="t21" style="edgeStyle=orthogonalEdgeStyle;rounded=0;orthogonalLoop=1;jettySize=auto;html=1;exitX=1;exitY=0.5;exitDx=0;exitDy=0;entryX=0;entryY=0.5;entryDx=0;entryDy=0;" parent="1" source="L3VqqMxLOk5BLTr2aD1z-52" target="L3VqqMxLOk5BLTr2aD1z-54" edge="1">
          <mxGeometry relative="1" as="geometry" />
        </mxCell>
        <mxCell id="L3VqqMxLOk5BLTr2aD1z-52" value="&lt;div&gt;v16&lt;/div&gt;&lt;div&gt;m16(p3+p18)&lt;/div&gt;&lt;div&gt;pre(v16) = {v0,v1,v2,v3,&lt;div&gt;v4,v5,v6,v7,v8,v9,v10,&lt;/div&gt;&lt;div&gt;v11,v12,v13,v14,v15}&lt;/div&gt;&lt;/div&gt;&lt;div&gt;pi(v16) = p3+p18&lt;br&gt;&lt;/div&gt;" style="rounded=0;whiteSpace=wrap;html=1;" parent="1" vertex="1">
          <mxGeometry x="25" y="1680" width="140" height="100" as="geometry" />
        </mxCell>
        <mxCell id="L3VqqMxLOk5BLTr2aD1z-67" style="edgeStyle=orthogonalEdgeStyle;rounded=0;orthogonalLoop=1;jettySize=auto;html=1;exitX=1;exitY=0.5;exitDx=0;exitDy=0;entryX=0;entryY=0.25;entryDx=0;entryDy=0;" parent="1" source="L3VqqMxLOk5BLTr2aD1z-54" target="L3VqqMxLOk5BLTr2aD1z-56" edge="1">
          <mxGeometry relative="1" as="geometry" />
        </mxCell>
        <mxCell id="L3VqqMxLOk5BLTr2aD1z-68" value="t22" style="edgeLabel;html=1;align=center;verticalAlign=middle;resizable=0;points=[];" parent="L3VqqMxLOk5BLTr2aD1z-67" vertex="1" connectable="0">
          <mxGeometry x="-0.4954" y="-2" relative="1" as="geometry">
            <mxPoint as="offset" />
          </mxGeometry>
        </mxCell>
        <mxCell id="L3VqqMxLOk5BLTr2aD1z-54" value="&lt;div&gt;v17&lt;/div&gt;&lt;div&gt;m17(p3+p19)&lt;/div&gt;&lt;div&gt;pre(v17) = {v0,v1,v2,v3,&lt;div&gt;v4,v5,v6,v7,v8,v9,v10,&lt;/div&gt;&lt;div&gt;v11,v12,v13,v14,v15,v16}&lt;/div&gt;&lt;/div&gt;&lt;div&gt;pi(v17) = p3+p19&lt;br&gt;&lt;/div&gt;" style="rounded=0;whiteSpace=wrap;html=1;" parent="1" vertex="1">
          <mxGeometry x="245" y="1680" width="140" height="100" as="geometry" />
        </mxCell>
        <mxCell id="L3VqqMxLOk5BLTr2aD1z-60" style="edgeStyle=orthogonalEdgeStyle;rounded=0;orthogonalLoop=1;jettySize=auto;html=1;exitX=1;exitY=0.5;exitDx=0;exitDy=0;" parent="1" source="L3VqqMxLOk5BLTr2aD1z-56" target="L3VqqMxLOk5BLTr2aD1z-58" edge="1">
          <mxGeometry relative="1" as="geometry" />
        </mxCell>
        <mxCell id="L3VqqMxLOk5BLTr2aD1z-61" value="t23" style="edgeLabel;html=1;align=center;verticalAlign=middle;resizable=0;points=[];" parent="L3VqqMxLOk5BLTr2aD1z-60" vertex="1" connectable="0">
          <mxGeometry x="-0.1" y="-1" relative="1" as="geometry">
            <mxPoint as="offset" />
          </mxGeometry>
        </mxCell>
        <mxCell id="L3VqqMxLOk5BLTr2aD1z-63" value="t24" style="edgeStyle=orthogonalEdgeStyle;rounded=0;orthogonalLoop=1;jettySize=auto;html=1;exitX=0.5;exitY=1;exitDx=0;exitDy=0;entryX=0.5;entryY=0;entryDx=0;entryDy=0;" parent="1" source="L3VqqMxLOk5BLTr2aD1z-56" target="L3VqqMxLOk5BLTr2aD1z-62" edge="1">
          <mxGeometry relative="1" as="geometry" />
        </mxCell>
        <mxCell id="L3VqqMxLOk5BLTr2aD1z-56" value="&lt;div&gt;v18&lt;/div&gt;&lt;div&gt;m18(p3+p20)&lt;/div&gt;&lt;div&gt;pre(v18) = {v0,v1,v2,v3,&lt;div&gt;v4,v5,v6,v7,v8,v9,v10,&lt;/div&gt;&lt;div&gt;v11,v12,v13,v14,v15,v16,&lt;/div&gt;&lt;div&gt;v17}&lt;/div&gt;&lt;/div&gt;&lt;div&gt;pi(v18) = p3+p20&lt;br&gt;&lt;/div&gt;" style="rounded=0;whiteSpace=wrap;html=1;" parent="1" vertex="1">
          <mxGeometry x="465" y="1680" width="140" height="120" as="geometry" />
        </mxCell>
        <mxCell id="L3VqqMxLOk5BLTr2aD1z-58" value="&lt;div&gt;v19&lt;/div&gt;&lt;div&gt;m19(p3+p21)&lt;/div&gt;&lt;div&gt;pre(v19) = {v0,v1,v2,v3,&lt;div&gt;v4,v5,v6,v7,v8,v9,v10,&lt;/div&gt;&lt;div&gt;v11,v12,v13,v14,v15,v16,&lt;/div&gt;&lt;div&gt;v17,v18}&lt;/div&gt;&lt;/div&gt;&lt;div&gt;pi(v19) = p3+p21&lt;br&gt;&lt;/div&gt;" style="rounded=0;whiteSpace=wrap;html=1;" parent="1" vertex="1">
          <mxGeometry x="685" y="1680" width="140" height="120" as="geometry" />
        </mxCell>
        <mxCell id="L3VqqMxLOk5BLTr2aD1z-65" style="edgeStyle=orthogonalEdgeStyle;rounded=0;orthogonalLoop=1;jettySize=auto;html=1;exitX=1;exitY=0.5;exitDx=0;exitDy=0;" parent="1" source="L3VqqMxLOk5BLTr2aD1z-62" target="L3VqqMxLOk5BLTr2aD1z-64" edge="1">
          <mxGeometry relative="1" as="geometry" />
        </mxCell>
        <mxCell id="L3VqqMxLOk5BLTr2aD1z-66" value="t25" style="edgeLabel;html=1;align=center;verticalAlign=middle;resizable=0;points=[];" parent="L3VqqMxLOk5BLTr2aD1z-65" vertex="1" connectable="0">
          <mxGeometry x="0.15" relative="1" as="geometry">
            <mxPoint as="offset" />
          </mxGeometry>
        </mxCell>
        <mxCell id="L3VqqMxLOk5BLTr2aD1z-62" value="&lt;div&gt;v20&lt;/div&gt;&lt;div&gt;m20(p3+p22)&lt;/div&gt;&lt;div&gt;pre(v20) = {v0,v1,v2,v3,&lt;div&gt;v4,v5,v6,v7,v8,v9,v10,&lt;/div&gt;&lt;div&gt;v11,v12,v13,v14,v15,v16,&lt;/div&gt;&lt;div&gt;v17,v18}&lt;/div&gt;&lt;/div&gt;&lt;div&gt;pi(v20) = p3+p22&lt;br&gt;&lt;/div&gt;" style="rounded=0;whiteSpace=wrap;html=1;" parent="1" vertex="1">
          <mxGeometry x="465" y="1840" width="140" height="120" as="geometry" />
        </mxCell>
        <mxCell id="L3VqqMxLOk5BLTr2aD1z-64" value="&lt;div&gt;v21&lt;/div&gt;&lt;div&gt;m21(p23)&lt;/div&gt;&lt;div&gt;pre(v21) = {v0,v1,v2,v3,&lt;div&gt;v4,v5,v6,v7,v8,v9,v10,&lt;/div&gt;&lt;div&gt;v11,v12,v13,v14,v15,v16,&lt;/div&gt;&lt;div&gt;v17,v18,v20}&lt;/div&gt;&lt;/div&gt;&lt;div&gt;pi(v21) = p23&lt;br&gt;&lt;/div&gt;" style="rounded=0;whiteSpace=wrap;html=1;" parent="1" vertex="1">
          <mxGeometry x="685" y="1840" width="140" height="120" as="geometry" />
        </mxCell>
        <mxCell id="L3VqqMxLOk5BLTr2aD1z-89" style="edgeStyle=orthogonalEdgeStyle;rounded=0;orthogonalLoop=1;jettySize=auto;html=1;exitX=0.5;exitY=1;exitDx=0;exitDy=0;entryX=0.5;entryY=0;entryDx=0;entryDy=0;" parent="1" source="L3VqqMxLOk5BLTr2aD1z-71" target="L3VqqMxLOk5BLTr2aD1z-72" edge="1">
          <mxGeometry relative="1" as="geometry" />
        </mxCell>
        <mxCell id="L3VqqMxLOk5BLTr2aD1z-90" value="t1" style="edgeLabel;html=1;align=center;verticalAlign=middle;resizable=0;points=[];" parent="L3VqqMxLOk5BLTr2aD1z-89" vertex="1" connectable="0">
          <mxGeometry x="-0.4147" y="2" relative="1" as="geometry">
            <mxPoint as="offset" />
          </mxGeometry>
        </mxCell>
        <mxCell id="L3VqqMxLOk5BLTr2aD1z-71" value="&lt;div&gt;v0&lt;/div&gt;&lt;div&gt;m0 = p1 &lt;br&gt;&lt;/div&gt;&lt;div&gt;pre(v0) = {}&lt;/div&gt;&lt;div&gt;pi(v0) = p1&lt;br&gt;&lt;/div&gt;" style="rounded=0;whiteSpace=wrap;html=1;" parent="1" vertex="1">
          <mxGeometry x="20" y="110" width="140" height="100" as="geometry" />
        </mxCell>
        <mxCell id="L3VqqMxLOk5BLTr2aD1z-91" style="edgeStyle=orthogonalEdgeStyle;rounded=0;orthogonalLoop=1;jettySize=auto;html=1;exitX=1;exitY=0.5;exitDx=0;exitDy=0;" parent="1" source="L3VqqMxLOk5BLTr2aD1z-72" target="L3VqqMxLOk5BLTr2aD1z-73" edge="1">
          <mxGeometry relative="1" as="geometry" />
        </mxCell>
        <mxCell id="L3VqqMxLOk5BLTr2aD1z-92" value="t2" style="edgeLabel;html=1;align=center;verticalAlign=middle;resizable=0;points=[];" parent="L3VqqMxLOk5BLTr2aD1z-91" vertex="1" connectable="0">
          <mxGeometry x="0.0382" y="1" relative="1" as="geometry">
            <mxPoint as="offset" />
          </mxGeometry>
        </mxCell>
        <mxCell id="L3VqqMxLOk5BLTr2aD1z-118" style="edgeStyle=orthogonalEdgeStyle;rounded=0;orthogonalLoop=1;jettySize=auto;html=1;exitX=0.5;exitY=1;exitDx=0;exitDy=0;entryX=0.5;entryY=0;entryDx=0;entryDy=0;" parent="1" source="L3VqqMxLOk5BLTr2aD1z-72" target="L3VqqMxLOk5BLTr2aD1z-117" edge="1">
          <mxGeometry relative="1" as="geometry" />
        </mxCell>
        <mxCell id="L3VqqMxLOk5BLTr2aD1z-124" value="t11" style="edgeLabel;html=1;align=center;verticalAlign=middle;resizable=0;points=[];" parent="L3VqqMxLOk5BLTr2aD1z-118" vertex="1" connectable="0">
          <mxGeometry x="-0.2382" y="2" relative="1" as="geometry">
            <mxPoint as="offset" />
          </mxGeometry>
        </mxCell>
        <mxCell id="L3VqqMxLOk5BLTr2aD1z-72" value="&lt;div&gt;v1&lt;/div&gt;&lt;div&gt;m1= p2&lt;/div&gt;&lt;div&gt;pre(v1) = {v0}&lt;/div&gt;&lt;div&gt;pi(v1) = p2&lt;br&gt;&lt;/div&gt;" style="rounded=0;whiteSpace=wrap;html=1;" parent="1" vertex="1">
          <mxGeometry x="20" y="250" width="140" height="100" as="geometry" />
        </mxCell>
        <mxCell id="L3VqqMxLOk5BLTr2aD1z-93" style="edgeStyle=orthogonalEdgeStyle;rounded=0;orthogonalLoop=1;jettySize=auto;html=1;exitX=0.5;exitY=0;exitDx=0;exitDy=0;entryX=0.5;entryY=1;entryDx=0;entryDy=0;" parent="1" source="L3VqqMxLOk5BLTr2aD1z-73" target="L3VqqMxLOk5BLTr2aD1z-74" edge="1">
          <mxGeometry relative="1" as="geometry" />
        </mxCell>
        <mxCell id="L3VqqMxLOk5BLTr2aD1z-94" value="t3" style="edgeLabel;html=1;align=center;verticalAlign=middle;resizable=0;points=[];" parent="L3VqqMxLOk5BLTr2aD1z-93" vertex="1" connectable="0">
          <mxGeometry x="0.1206" y="1" relative="1" as="geometry">
            <mxPoint as="offset" />
          </mxGeometry>
        </mxCell>
        <mxCell id="L3VqqMxLOk5BLTr2aD1z-73" value="&lt;div&gt;v2&lt;/div&gt;&lt;div&gt;m2 = p3&lt;/div&gt;&lt;div&gt;pre(v2) = {v0,v1}&lt;/div&gt;&lt;div&gt;pi(v2) = p3&lt;/div&gt;" style="rounded=0;whiteSpace=wrap;html=1;" parent="1" vertex="1">
          <mxGeometry x="240" y="250" width="140" height="100" as="geometry" />
        </mxCell>
        <mxCell id="L3VqqMxLOk5BLTr2aD1z-95" style="edgeStyle=orthogonalEdgeStyle;rounded=0;orthogonalLoop=1;jettySize=auto;html=1;exitX=1;exitY=0.75;exitDx=0;exitDy=0;entryX=0;entryY=0.5;entryDx=0;entryDy=0;" parent="1" source="L3VqqMxLOk5BLTr2aD1z-74" target="L3VqqMxLOk5BLTr2aD1z-81" edge="1">
          <mxGeometry relative="1" as="geometry" />
        </mxCell>
        <mxCell id="L3VqqMxLOk5BLTr2aD1z-104" value="t5" style="edgeLabel;html=1;align=center;verticalAlign=middle;resizable=0;points=[];" parent="L3VqqMxLOk5BLTr2aD1z-95" vertex="1" connectable="0">
          <mxGeometry x="0.076" y="2" relative="1" as="geometry">
            <mxPoint as="offset" />
          </mxGeometry>
        </mxCell>
        <mxCell id="L3VqqMxLOk5BLTr2aD1z-96" style="edgeStyle=orthogonalEdgeStyle;rounded=0;orthogonalLoop=1;jettySize=auto;html=1;exitX=1;exitY=0.5;exitDx=0;exitDy=0;entryX=0;entryY=0.5;entryDx=0;entryDy=0;" parent="1" source="L3VqqMxLOk5BLTr2aD1z-74" target="L3VqqMxLOk5BLTr2aD1z-80" edge="1">
          <mxGeometry relative="1" as="geometry" />
        </mxCell>
        <mxCell id="L3VqqMxLOk5BLTr2aD1z-102" value="t4" style="edgeLabel;html=1;align=center;verticalAlign=middle;resizable=0;points=[];" parent="L3VqqMxLOk5BLTr2aD1z-96" vertex="1" connectable="0">
          <mxGeometry x="-0.05" y="-2" relative="1" as="geometry">
            <mxPoint as="offset" />
          </mxGeometry>
        </mxCell>
        <mxCell id="L3VqqMxLOk5BLTr2aD1z-97" style="edgeStyle=orthogonalEdgeStyle;rounded=0;orthogonalLoop=1;jettySize=auto;html=1;exitX=1;exitY=0.25;exitDx=0;exitDy=0;entryX=0;entryY=0.25;entryDx=0;entryDy=0;" parent="1" source="L3VqqMxLOk5BLTr2aD1z-74" target="L3VqqMxLOk5BLTr2aD1z-82" edge="1">
          <mxGeometry relative="1" as="geometry">
            <Array as="points">
              <mxPoint x="420" y="135" />
              <mxPoint x="420" y="100" />
              <mxPoint x="640" y="100" />
              <mxPoint x="640" y="135" />
            </Array>
          </mxGeometry>
        </mxCell>
        <mxCell id="L3VqqMxLOk5BLTr2aD1z-106" value="t6" style="edgeLabel;html=1;align=center;verticalAlign=middle;resizable=0;points=[];" parent="L3VqqMxLOk5BLTr2aD1z-97" vertex="1" connectable="0">
          <mxGeometry x="-0.7055" y="-3" relative="1" as="geometry">
            <mxPoint as="offset" />
          </mxGeometry>
        </mxCell>
        <mxCell id="L3VqqMxLOk5BLTr2aD1z-74" value="&lt;div&gt;v3&lt;/div&gt;&lt;div&gt;m3 = p4&lt;/div&gt;&lt;div&gt;pre(v3) = {v0,v1,v2}&lt;/div&gt;&lt;div&gt;pi(v3) = p4&lt;br&gt;&lt;/div&gt;" style="rounded=0;whiteSpace=wrap;html=1;" parent="1" vertex="1">
          <mxGeometry x="240" y="110" width="140" height="100" as="geometry" />
        </mxCell>
        <mxCell id="L3VqqMxLOk5BLTr2aD1z-100" style="edgeStyle=orthogonalEdgeStyle;rounded=0;orthogonalLoop=1;jettySize=auto;html=1;exitX=1;exitY=0.5;exitDx=0;exitDy=0;entryX=0;entryY=0.25;entryDx=0;entryDy=0;" parent="1" source="L3VqqMxLOk5BLTr2aD1z-80" target="L3VqqMxLOk5BLTr2aD1z-98" edge="1">
          <mxGeometry relative="1" as="geometry" />
        </mxCell>
        <mxCell id="L3VqqMxLOk5BLTr2aD1z-110" value="t7" style="edgeLabel;html=1;align=center;verticalAlign=middle;resizable=0;points=[];" parent="L3VqqMxLOk5BLTr2aD1z-100" vertex="1" connectable="0">
          <mxGeometry x="-0.0296" relative="1" as="geometry">
            <mxPoint as="offset" />
          </mxGeometry>
        </mxCell>
        <mxCell id="L3VqqMxLOk5BLTr2aD1z-80" value="&lt;div&gt;v4&lt;/div&gt;&lt;div&gt;m4 = p4+wp5&lt;/div&gt;&lt;div&gt;pre(v4) = {v0,v1,v2,v3}&lt;/div&gt;&lt;div&gt;pi(v4) = p4+wp5&lt;br&gt;&lt;/div&gt;" style="rounded=0;whiteSpace=wrap;html=1;" parent="1" vertex="1">
          <mxGeometry x="460" y="110" width="140" height="100" as="geometry" />
        </mxCell>
        <mxCell id="L3VqqMxLOk5BLTr2aD1z-101" style="edgeStyle=orthogonalEdgeStyle;rounded=0;orthogonalLoop=1;jettySize=auto;html=1;exitX=1;exitY=0.5;exitDx=0;exitDy=0;entryX=0;entryY=0.5;entryDx=0;entryDy=0;" parent="1" source="L3VqqMxLOk5BLTr2aD1z-81" target="L3VqqMxLOk5BLTr2aD1z-98" edge="1">
          <mxGeometry relative="1" as="geometry" />
        </mxCell>
        <mxCell id="L3VqqMxLOk5BLTr2aD1z-108" value="t7" style="edgeLabel;html=1;align=center;verticalAlign=middle;resizable=0;points=[];" parent="L3VqqMxLOk5BLTr2aD1z-101" vertex="1" connectable="0">
          <mxGeometry x="-0.1971" y="-2" relative="1" as="geometry">
            <mxPoint as="offset" />
          </mxGeometry>
        </mxCell>
        <mxCell id="L3VqqMxLOk5BLTr2aD1z-81" value="&lt;div&gt;v5&lt;/div&gt;&lt;div&gt;m5 = p4+wp6&lt;br&gt;&lt;/div&gt;&lt;div&gt;pre(v5) = {v0,v1,v2,v3}&lt;/div&gt;&lt;div&gt;pi(v5) = p4+wp6&lt;br&gt;&lt;/div&gt;" style="rounded=0;whiteSpace=wrap;html=1;" parent="1" vertex="1">
          <mxGeometry x="460" y="250" width="140" height="100" as="geometry" />
        </mxCell>
        <mxCell id="L3VqqMxLOk5BLTr2aD1z-99" style="edgeStyle=orthogonalEdgeStyle;rounded=0;orthogonalLoop=1;jettySize=auto;html=1;exitX=0.5;exitY=1;exitDx=0;exitDy=0;" parent="1" source="L3VqqMxLOk5BLTr2aD1z-82" target="L3VqqMxLOk5BLTr2aD1z-98" edge="1">
          <mxGeometry relative="1" as="geometry" />
        </mxCell>
        <mxCell id="L3VqqMxLOk5BLTr2aD1z-109" value="t7" style="edgeLabel;html=1;align=center;verticalAlign=middle;resizable=0;points=[];" parent="L3VqqMxLOk5BLTr2aD1z-99" vertex="1" connectable="0">
          <mxGeometry x="-0.2382" y="1" relative="1" as="geometry">
            <mxPoint as="offset" />
          </mxGeometry>
        </mxCell>
        <mxCell id="L3VqqMxLOk5BLTr2aD1z-82" value="&lt;div&gt;v6&lt;/div&gt;&lt;div&gt;m6 =&amp;nbsp; p4+wp7&lt;br&gt;&lt;/div&gt;&lt;div&gt;pre(v6) = {v0,v1,v2,v3}&lt;/div&gt;&lt;div&gt;pi(v6) = p4+wp7&lt;br&gt;&lt;/div&gt;" style="rounded=0;whiteSpace=wrap;html=1;" parent="1" vertex="1">
          <mxGeometry x="680" y="110" width="140" height="100" as="geometry" />
        </mxCell>
        <mxCell id="L3VqqMxLOk5BLTr2aD1z-112" style="edgeStyle=orthogonalEdgeStyle;rounded=0;orthogonalLoop=1;jettySize=auto;html=1;exitX=0.5;exitY=1;exitDx=0;exitDy=0;entryX=0.5;entryY=0;entryDx=0;entryDy=0;" parent="1" source="L3VqqMxLOk5BLTr2aD1z-98" target="L3VqqMxLOk5BLTr2aD1z-111" edge="1">
          <mxGeometry relative="1" as="geometry" />
        </mxCell>
        <mxCell id="L3VqqMxLOk5BLTr2aD1z-113" value="t8" style="edgeLabel;html=1;align=center;verticalAlign=middle;resizable=0;points=[];" parent="L3VqqMxLOk5BLTr2aD1z-112" vertex="1" connectable="0">
          <mxGeometry x="-0.0618" y="1" relative="1" as="geometry">
            <mxPoint as="offset" />
          </mxGeometry>
        </mxCell>
        <mxCell id="L3VqqMxLOk5BLTr2aD1z-98" value="&lt;div&gt;v7&lt;/div&gt;&lt;div&gt;m7 = p4+p8&lt;/div&gt;&lt;div&gt;pre(v7) = {v0,v1,v2,v3,v4,&lt;/div&gt;&lt;div&gt;v5,v6}&lt;/div&gt;&lt;div&gt;pi(v7) = p8&lt;br&gt;&lt;/div&gt;" style="rounded=0;whiteSpace=wrap;html=1;" parent="1" vertex="1">
          <mxGeometry x="680" y="250" width="140" height="100" as="geometry" />
        </mxCell>
        <mxCell id="L3VqqMxLOk5BLTr2aD1z-115" value="t9" style="edgeStyle=orthogonalEdgeStyle;rounded=0;orthogonalLoop=1;jettySize=auto;html=1;exitX=0;exitY=0.5;exitDx=0;exitDy=0;" parent="1" source="L3VqqMxLOk5BLTr2aD1z-111" target="L3VqqMxLOk5BLTr2aD1z-114" edge="1">
          <mxGeometry relative="1" as="geometry" />
        </mxCell>
        <mxCell id="L3VqqMxLOk5BLTr2aD1z-111" value="&lt;div&gt;v8&lt;/div&gt;&lt;div&gt;m8 = p4+p9&lt;/div&gt;&lt;div&gt;pre(v8) = {v0,v1,v2,v3,v4,&lt;/div&gt;&lt;div&gt;v5,v6,v7}&lt;/div&gt;&lt;div&gt;pi(v8) = p9&lt;br&gt;&lt;/div&gt;" style="rounded=0;whiteSpace=wrap;html=1;" parent="1" vertex="1">
          <mxGeometry x="680" y="390" width="140" height="100" as="geometry" />
        </mxCell>
        <mxCell id="L3VqqMxLOk5BLTr2aD1z-122" style="edgeStyle=orthogonalEdgeStyle;rounded=0;orthogonalLoop=1;jettySize=auto;html=1;exitX=0;exitY=0.5;exitDx=0;exitDy=0;entryX=1;entryY=0.5;entryDx=0;entryDy=0;" parent="1" source="L3VqqMxLOk5BLTr2aD1z-114" target="L3VqqMxLOk5BLTr2aD1z-120" edge="1">
          <mxGeometry relative="1" as="geometry" />
        </mxCell>
        <mxCell id="L3VqqMxLOk5BLTr2aD1z-123" value="t10" style="edgeLabel;html=1;align=center;verticalAlign=middle;resizable=0;points=[];" parent="L3VqqMxLOk5BLTr2aD1z-122" vertex="1" connectable="0">
          <mxGeometry x="-0.0676" y="3" relative="1" as="geometry">
            <mxPoint as="offset" />
          </mxGeometry>
        </mxCell>
        <mxCell id="L3VqqMxLOk5BLTr2aD1z-114" value="&lt;div&gt;v9&lt;/div&gt;&lt;div&gt;m9 = p4+p10&lt;/div&gt;&lt;div&gt;pre(v9) = {v0,v1,v2,v3,v4,&lt;/div&gt;&lt;div&gt;v5,v6,v7,v8}&lt;/div&gt;&lt;div&gt;pi(v9) = p10&lt;br&gt;&lt;/div&gt;" style="rounded=0;whiteSpace=wrap;html=1;" parent="1" vertex="1">
          <mxGeometry x="460" y="390" width="140" height="100" as="geometry" />
        </mxCell>
        <mxCell id="L3VqqMxLOk5BLTr2aD1z-121" style="edgeStyle=orthogonalEdgeStyle;rounded=0;orthogonalLoop=1;jettySize=auto;html=1;exitX=1;exitY=0.5;exitDx=0;exitDy=0;" parent="1" source="L3VqqMxLOk5BLTr2aD1z-117" target="L3VqqMxLOk5BLTr2aD1z-120" edge="1">
          <mxGeometry relative="1" as="geometry" />
        </mxCell>
        <mxCell id="L3VqqMxLOk5BLTr2aD1z-125" value="t12" style="edgeLabel;html=1;align=center;verticalAlign=middle;resizable=0;points=[];" parent="L3VqqMxLOk5BLTr2aD1z-121" vertex="1" connectable="0">
          <mxGeometry x="0.0382" y="-4" relative="1" as="geometry">
            <mxPoint as="offset" />
          </mxGeometry>
        </mxCell>
        <mxCell id="L3VqqMxLOk5BLTr2aD1z-117" value="&lt;div&gt;v10&lt;/div&gt;&lt;div&gt;m10 = p11&lt;/div&gt;&lt;div&gt;pre(v10) = {v0,v1}&lt;/div&gt;&lt;div&gt;pi(v10) = p11&lt;/div&gt;" style="rounded=0;whiteSpace=wrap;html=1;" parent="1" vertex="1">
          <mxGeometry x="20" y="390" width="140" height="100" as="geometry" />
        </mxCell>
        <mxCell id="L3VqqMxLOk5BLTr2aD1z-128" style="edgeStyle=orthogonalEdgeStyle;rounded=0;orthogonalLoop=1;jettySize=auto;html=1;exitX=0.5;exitY=1;exitDx=0;exitDy=0;entryX=0.5;entryY=0;entryDx=0;entryDy=0;" parent="1" source="L3VqqMxLOk5BLTr2aD1z-120" target="L3VqqMxLOk5BLTr2aD1z-126" edge="1">
          <mxGeometry relative="1" as="geometry" />
        </mxCell>
        <mxCell id="L3VqqMxLOk5BLTr2aD1z-133" value="t13" style="edgeLabel;html=1;align=center;verticalAlign=middle;resizable=0;points=[];" parent="L3VqqMxLOk5BLTr2aD1z-128" vertex="1" connectable="0">
          <mxGeometry x="-0.2088" y="2" relative="1" as="geometry">
            <mxPoint y="1" as="offset" />
          </mxGeometry>
        </mxCell>
        <mxCell id="L3VqqMxLOk5BLTr2aD1z-129" style="edgeStyle=orthogonalEdgeStyle;rounded=0;orthogonalLoop=1;jettySize=auto;html=1;exitX=0.25;exitY=1;exitDx=0;exitDy=0;entryX=0.5;entryY=0;entryDx=0;entryDy=0;" parent="1" source="L3VqqMxLOk5BLTr2aD1z-120" target="L3VqqMxLOk5BLTr2aD1z-127" edge="1">
          <mxGeometry relative="1" as="geometry" />
        </mxCell>
        <mxCell id="L3VqqMxLOk5BLTr2aD1z-134" value="t14" style="edgeLabel;html=1;align=center;verticalAlign=middle;resizable=0;points=[];" parent="L3VqqMxLOk5BLTr2aD1z-129" vertex="1" connectable="0">
          <mxGeometry x="-0.1056" y="3" relative="1" as="geometry">
            <mxPoint x="1" as="offset" />
          </mxGeometry>
        </mxCell>
        <mxCell id="L3VqqMxLOk5BLTr2aD1z-120" value="&lt;div&gt;v11&lt;/div&gt;&lt;div&gt;m11 = p12&lt;/div&gt;&lt;div&gt;pre(v11) = {v0,v1,v2,v3,&lt;/div&gt;&lt;div&gt;v4,v5,v6,v7,v8,v9,v10}&lt;/div&gt;&lt;div&gt;pi(v11) = p12&lt;/div&gt;" style="rounded=0;whiteSpace=wrap;html=1;" parent="1" vertex="1">
          <mxGeometry x="240" y="390" width="140" height="100" as="geometry" />
        </mxCell>
        <mxCell id="L3VqqMxLOk5BLTr2aD1z-132" style="edgeStyle=orthogonalEdgeStyle;rounded=0;orthogonalLoop=1;jettySize=auto;html=1;exitX=0.5;exitY=1;exitDx=0;exitDy=0;entryX=0.75;entryY=0;entryDx=0;entryDy=0;" parent="1" source="L3VqqMxLOk5BLTr2aD1z-126" target="L3VqqMxLOk5BLTr2aD1z-130" edge="1">
          <mxGeometry relative="1" as="geometry" />
        </mxCell>
        <mxCell id="L3VqqMxLOk5BLTr2aD1z-135" value="t15" style="edgeLabel;html=1;align=center;verticalAlign=middle;resizable=0;points=[];" parent="L3VqqMxLOk5BLTr2aD1z-132" vertex="1" connectable="0">
          <mxGeometry x="-0.3398" y="3" relative="1" as="geometry">
            <mxPoint as="offset" />
          </mxGeometry>
        </mxCell>
        <mxCell id="L3VqqMxLOk5BLTr2aD1z-126" value="&lt;div&gt;v12&lt;/div&gt;&lt;div&gt;m12 = p13&lt;/div&gt;&lt;div&gt;pre(v12) = {v0,v1,v2,v3,&lt;/div&gt;&lt;div&gt;v4,v5,v6,v7,v8,v9,v10,v11}&lt;/div&gt;&lt;div&gt;pi(v12) = p13&lt;/div&gt;" style="rounded=0;whiteSpace=wrap;html=1;" parent="1" vertex="1">
          <mxGeometry x="240" y="530" width="140" height="100" as="geometry" />
        </mxCell>
        <mxCell id="L3VqqMxLOk5BLTr2aD1z-131" style="edgeStyle=orthogonalEdgeStyle;rounded=0;orthogonalLoop=1;jettySize=auto;html=1;exitX=0.5;exitY=1;exitDx=0;exitDy=0;entryX=0.25;entryY=0;entryDx=0;entryDy=0;" parent="1" source="L3VqqMxLOk5BLTr2aD1z-127" target="L3VqqMxLOk5BLTr2aD1z-130" edge="1">
          <mxGeometry relative="1" as="geometry" />
        </mxCell>
        <mxCell id="L3VqqMxLOk5BLTr2aD1z-136" value="t15" style="edgeLabel;html=1;align=center;verticalAlign=middle;resizable=0;points=[];" parent="L3VqqMxLOk5BLTr2aD1z-131" vertex="1" connectable="0">
          <mxGeometry x="-0.226" y="-3" relative="1" as="geometry">
            <mxPoint as="offset" />
          </mxGeometry>
        </mxCell>
        <mxCell id="L3VqqMxLOk5BLTr2aD1z-127" value="&lt;div&gt;v13&lt;/div&gt;&lt;div&gt;m13 = p14&lt;/div&gt;&lt;div&gt;pre(v13) = {v0,v1,v2,v3,&lt;/div&gt;&lt;div&gt;v4,v5,v6,v7,v8,v9,v10,v11}&lt;/div&gt;&lt;div&gt;pi(v13) = p14&lt;/div&gt;" style="rounded=0;whiteSpace=wrap;html=1;" parent="1" vertex="1">
          <mxGeometry x="20" y="530" width="140" height="100" as="geometry" />
        </mxCell>
        <mxCell id="L3VqqMxLOk5BLTr2aD1z-130" value="&lt;div&gt;v14&lt;/div&gt;&lt;div&gt;m14 = p15&lt;/div&gt;&lt;div&gt;pre(v14) = {v0,v1,v2,v3,&lt;/div&gt;&lt;div&gt;v4,v5,v6,v7,v8,v9,v10,&lt;/div&gt;&lt;div&gt;v11,v12,v13}&lt;/div&gt;&lt;div&gt;pi(v14) = p15&lt;/div&gt;" style="rounded=0;whiteSpace=wrap;html=1;" parent="1" vertex="1">
          <mxGeometry x="130" y="670" width="140" height="100" as="geometry" />
        </mxCell>
        <mxCell id="L3VqqMxLOk5BLTr2aD1z-152" style="edgeStyle=orthogonalEdgeStyle;rounded=0;orthogonalLoop=1;jettySize=auto;html=1;exitX=0.5;exitY=1;exitDx=0;exitDy=0;entryX=0.5;entryY=0;entryDx=0;entryDy=0;" parent="1" source="L3VqqMxLOk5BLTr2aD1z-138" target="L3VqqMxLOk5BLTr2aD1z-139" edge="1">
          <mxGeometry relative="1" as="geometry" />
        </mxCell>
        <mxCell id="L3VqqMxLOk5BLTr2aD1z-153" value="t1" style="edgeLabel;html=1;align=center;verticalAlign=middle;resizable=0;points=[];" parent="L3VqqMxLOk5BLTr2aD1z-152" vertex="1" connectable="0">
          <mxGeometry x="-0.4147" y="-4" relative="1" as="geometry">
            <mxPoint as="offset" />
          </mxGeometry>
        </mxCell>
        <mxCell id="L3VqqMxLOk5BLTr2aD1z-138" value="&lt;div&gt;v0&lt;/div&gt;&lt;div&gt;m0 = p1+10p11+10p12+10p13&lt;/div&gt;&lt;div&gt;pre(v0) = {}&lt;/div&gt;&lt;div&gt;pi(v0) = p1+10p11+10p12+10p13&lt;/div&gt;" style="rounded=0;whiteSpace=wrap;html=1;" parent="1" vertex="1">
          <mxGeometry x="20" y="2270" width="140" height="100" as="geometry" />
        </mxCell>
        <mxCell id="L3VqqMxLOk5BLTr2aD1z-154" style="edgeStyle=orthogonalEdgeStyle;rounded=0;orthogonalLoop=1;jettySize=auto;html=1;exitX=0.5;exitY=1;exitDx=0;exitDy=0;entryX=0.5;entryY=0;entryDx=0;entryDy=0;" parent="1" source="L3VqqMxLOk5BLTr2aD1z-139" target="L3VqqMxLOk5BLTr2aD1z-142" edge="1">
          <mxGeometry relative="1" as="geometry" />
        </mxCell>
        <mxCell id="L3VqqMxLOk5BLTr2aD1z-155" value="t2" style="edgeLabel;html=1;align=center;verticalAlign=middle;resizable=0;points=[];" parent="L3VqqMxLOk5BLTr2aD1z-154" vertex="1" connectable="0">
          <mxGeometry x="-0.0029" y="1" relative="1" as="geometry">
            <mxPoint as="offset" />
          </mxGeometry>
        </mxCell>
        <mxCell id="L3VqqMxLOk5BLTr2aD1z-139" value="&lt;div&gt;v1&lt;/div&gt;&lt;div&gt;m1 = p2+10p11+10p12+10p13&lt;/div&gt;&lt;div&gt;pre(v1) = {v0}&lt;/div&gt;&lt;div&gt;pi(v1) = p2+10p11+10p12+10p13&lt;/div&gt;" style="rounded=0;whiteSpace=wrap;html=1;" parent="1" vertex="1">
          <mxGeometry x="20" y="2410" width="140" height="100" as="geometry" />
        </mxCell>
        <mxCell id="L3VqqMxLOk5BLTr2aD1z-156" style="edgeStyle=orthogonalEdgeStyle;rounded=0;orthogonalLoop=1;jettySize=auto;html=1;exitX=1;exitY=0.75;exitDx=0;exitDy=0;entryX=0;entryY=0.75;entryDx=0;entryDy=0;" parent="1" source="L3VqqMxLOk5BLTr2aD1z-142" target="L3VqqMxLOk5BLTr2aD1z-151" edge="1">
          <mxGeometry relative="1" as="geometry" />
        </mxCell>
        <mxCell id="L3VqqMxLOk5BLTr2aD1z-165" value="t9" style="edgeLabel;html=1;align=center;verticalAlign=middle;resizable=0;points=[];" parent="L3VqqMxLOk5BLTr2aD1z-156" vertex="1" connectable="0">
          <mxGeometry x="-0.05" y="-1" relative="1" as="geometry">
            <mxPoint as="offset" />
          </mxGeometry>
        </mxCell>
        <mxCell id="L3VqqMxLOk5BLTr2aD1z-157" style="edgeStyle=orthogonalEdgeStyle;rounded=0;orthogonalLoop=1;jettySize=auto;html=1;exitX=1;exitY=0.5;exitDx=0;exitDy=0;entryX=0;entryY=0.5;entryDx=0;entryDy=0;" parent="1" source="L3VqqMxLOk5BLTr2aD1z-142" target="L3VqqMxLOk5BLTr2aD1z-146" edge="1">
          <mxGeometry relative="1" as="geometry">
            <Array as="points">
              <mxPoint x="210" y="2600" />
              <mxPoint x="210" y="2460" />
            </Array>
          </mxGeometry>
        </mxCell>
        <mxCell id="L3VqqMxLOk5BLTr2aD1z-164" value="t6" style="edgeLabel;html=1;align=center;verticalAlign=middle;resizable=0;points=[];" parent="L3VqqMxLOk5BLTr2aD1z-157" vertex="1" connectable="0">
          <mxGeometry x="0.1658" y="-3" relative="1" as="geometry">
            <mxPoint as="offset" />
          </mxGeometry>
        </mxCell>
        <mxCell id="L3VqqMxLOk5BLTr2aD1z-158" style="edgeStyle=orthogonalEdgeStyle;rounded=0;orthogonalLoop=1;jettySize=auto;html=1;exitX=1;exitY=0.25;exitDx=0;exitDy=0;entryX=0;entryY=0.5;entryDx=0;entryDy=0;" parent="1" source="L3VqqMxLOk5BLTr2aD1z-142" target="L3VqqMxLOk5BLTr2aD1z-148" edge="1">
          <mxGeometry relative="1" as="geometry">
            <Array as="points">
              <mxPoint x="190" y="2575" />
              <mxPoint x="190" y="2320" />
            </Array>
          </mxGeometry>
        </mxCell>
        <mxCell id="L3VqqMxLOk5BLTr2aD1z-163" value="t3" style="edgeLabel;html=1;align=center;verticalAlign=middle;resizable=0;points=[];" parent="L3VqqMxLOk5BLTr2aD1z-158" vertex="1" connectable="0">
          <mxGeometry x="0.0309" y="-2" relative="1" as="geometry">
            <mxPoint as="offset" />
          </mxGeometry>
        </mxCell>
        <mxCell id="L3VqqMxLOk5BLTr2aD1z-142" value="&lt;div&gt;v2&lt;/div&gt;&lt;div&gt;m2 = p3+10p11+10p12+10p13&lt;/div&gt;&lt;div&gt;pre(v2) = {v0, v1}&lt;/div&gt;&lt;div&gt;pi(v2) =&amp;nbsp;&lt;/div&gt;&lt;div&gt;p3+10p11+10p12+10p13&lt;/div&gt;" style="rounded=0;whiteSpace=wrap;html=1;" parent="1" vertex="1">
          <mxGeometry x="20" y="2550" width="140" height="100" as="geometry" />
        </mxCell>
        <mxCell id="L3VqqMxLOk5BLTr2aD1z-161" value="t7" style="edgeStyle=orthogonalEdgeStyle;rounded=0;orthogonalLoop=1;jettySize=auto;html=1;exitX=1;exitY=0.5;exitDx=0;exitDy=0;entryX=0;entryY=0.5;entryDx=0;entryDy=0;" parent="1" source="L3VqqMxLOk5BLTr2aD1z-146" target="L3VqqMxLOk5BLTr2aD1z-149" edge="1">
          <mxGeometry relative="1" as="geometry" />
        </mxCell>
        <mxCell id="L3VqqMxLOk5BLTr2aD1z-146" value="&lt;div&gt;v5&lt;/div&gt;&lt;div&gt;m5 = p6+10p11+10p12+10p13&lt;/div&gt;&lt;div&gt;pre(v5) = {v0, v1,v2}&lt;/div&gt;&lt;div&gt;pi(v5) = p6+10p11+10p12+10p13&lt;/div&gt;" style="rounded=0;whiteSpace=wrap;html=1;" parent="1" vertex="1">
          <mxGeometry x="240" y="2410" width="140" height="100" as="geometry" />
        </mxCell>
        <mxCell id="R_Y47KhbLcGqxAOQ1361-14" style="edgeStyle=orthogonalEdgeStyle;rounded=0;orthogonalLoop=1;jettySize=auto;html=1;exitX=1;exitY=0.25;exitDx=0;exitDy=0;entryX=0;entryY=0.25;entryDx=0;entryDy=0;" parent="1" source="L3VqqMxLOk5BLTr2aD1z-147" target="L3VqqMxLOk5BLTr2aD1z-169" edge="1">
          <mxGeometry relative="1" as="geometry" />
        </mxCell>
        <mxCell id="R_Y47KhbLcGqxAOQ1361-15" value="t5" style="edgeLabel;html=1;align=center;verticalAlign=middle;resizable=0;points=[];" parent="R_Y47KhbLcGqxAOQ1361-14" connectable="0" vertex="1">
          <mxGeometry x="-0.0051" y="2" relative="1" as="geometry">
            <mxPoint as="offset" />
          </mxGeometry>
        </mxCell>
        <mxCell id="L3VqqMxLOk5BLTr2aD1z-147" value="&lt;div&gt;v4&lt;/div&gt;&lt;div&gt;m4 = p5+10p11+10p12+10p13&lt;/div&gt;&lt;div&gt;pre(v4) = {v0, v1,v2,v3}&lt;/div&gt;&lt;div&gt;pi(v4) = p5+10p11+10p12+10p13&lt;/div&gt;" style="rounded=0;whiteSpace=wrap;html=1;" parent="1" vertex="1">
          <mxGeometry x="460" y="2270" width="140" height="100" as="geometry" />
        </mxCell>
        <mxCell id="L3VqqMxLOk5BLTr2aD1z-159" style="edgeStyle=orthogonalEdgeStyle;rounded=0;orthogonalLoop=1;jettySize=auto;html=1;exitX=1;exitY=0.5;exitDx=0;exitDy=0;" parent="1" source="L3VqqMxLOk5BLTr2aD1z-148" target="L3VqqMxLOk5BLTr2aD1z-147" edge="1">
          <mxGeometry relative="1" as="geometry" />
        </mxCell>
        <mxCell id="L3VqqMxLOk5BLTr2aD1z-166" value="t4" style="edgeLabel;html=1;align=center;verticalAlign=middle;resizable=0;points=[];" parent="L3VqqMxLOk5BLTr2aD1z-159" vertex="1" connectable="0">
          <mxGeometry x="-0.05" y="-3" relative="1" as="geometry">
            <mxPoint as="offset" />
          </mxGeometry>
        </mxCell>
        <mxCell id="L3VqqMxLOk5BLTr2aD1z-148" value="&lt;div&gt;v3&lt;/div&gt;&lt;div&gt;m3 = p4+10p11+10p12+10p13&lt;/div&gt;&lt;div&gt;pre(v3) = {v0, v1,v2}&lt;/div&gt;&lt;div&gt;pi(v3) = p4&lt;br&gt;&lt;/div&gt;+10p11+10p12+10p13" style="rounded=0;whiteSpace=wrap;html=1;" parent="1" vertex="1">
          <mxGeometry x="240" y="2270" width="140" height="100" as="geometry" />
        </mxCell>
        <mxCell id="L3VqqMxLOk5BLTr2aD1z-177" style="edgeStyle=orthogonalEdgeStyle;rounded=0;orthogonalLoop=1;jettySize=auto;html=1;exitX=1;exitY=0.5;exitDx=0;exitDy=0;entryX=0;entryY=0.5;entryDx=0;entryDy=0;" parent="1" source="L3VqqMxLOk5BLTr2aD1z-149" target="L3VqqMxLOk5BLTr2aD1z-169" edge="1">
          <mxGeometry relative="1" as="geometry">
            <Array as="points">
              <mxPoint x="620" y="2460" />
              <mxPoint x="620" y="2305" />
            </Array>
          </mxGeometry>
        </mxCell>
        <mxCell id="L3VqqMxLOk5BLTr2aD1z-180" value="t8" style="edgeLabel;html=1;align=center;verticalAlign=middle;resizable=0;points=[];" parent="L3VqqMxLOk5BLTr2aD1z-177" vertex="1" connectable="0">
          <mxGeometry x="-0.0794" y="-2" relative="1" as="geometry">
            <mxPoint x="-2" y="-1" as="offset" />
          </mxGeometry>
        </mxCell>
        <mxCell id="L3VqqMxLOk5BLTr2aD1z-149" value="&lt;div&gt;v6&lt;/div&gt;&lt;div&gt;m6 = p7+10p11+10p12+10p13&lt;/div&gt;&lt;div&gt;pre(v6) = {v0, v1,v2,v5}&lt;/div&gt;&lt;div&gt;pi(v6) = p7+10p11+10p12+10p13&lt;/div&gt;" style="rounded=0;whiteSpace=wrap;html=1;" parent="1" vertex="1">
          <mxGeometry x="460" y="2410" width="140" height="100" as="geometry" />
        </mxCell>
        <mxCell id="L3VqqMxLOk5BLTr2aD1z-178" style="edgeStyle=orthogonalEdgeStyle;rounded=0;orthogonalLoop=1;jettySize=auto;html=1;exitX=1;exitY=0.5;exitDx=0;exitDy=0;entryX=0;entryY=0.75;entryDx=0;entryDy=0;" parent="1" source="L3VqqMxLOk5BLTr2aD1z-150" target="L3VqqMxLOk5BLTr2aD1z-169" edge="1">
          <mxGeometry relative="1" as="geometry" />
        </mxCell>
        <mxCell id="L3VqqMxLOk5BLTr2aD1z-181" value="t11" style="edgeLabel;html=1;align=center;verticalAlign=middle;resizable=0;points=[];" parent="L3VqqMxLOk5BLTr2aD1z-178" vertex="1" connectable="0">
          <mxGeometry x="0.0078" y="-2" relative="1" as="geometry">
            <mxPoint y="-1" as="offset" />
          </mxGeometry>
        </mxCell>
        <mxCell id="L3VqqMxLOk5BLTr2aD1z-150" value="&lt;div&gt;v8&lt;/div&gt;&lt;div&gt;m8 = p9+10p11+10p12+10p13&lt;/div&gt;&lt;div&gt;pre(v8) = {v0, v1,v2,v7}&lt;/div&gt;&lt;div&gt;pi(v8) = p9+10p11+10p12+10p13&lt;/div&gt;" style="rounded=0;whiteSpace=wrap;html=1;" parent="1" vertex="1">
          <mxGeometry x="460" y="2550" width="140" height="100" as="geometry" />
        </mxCell>
        <mxCell id="L3VqqMxLOk5BLTr2aD1z-162" style="edgeStyle=orthogonalEdgeStyle;rounded=0;orthogonalLoop=1;jettySize=auto;html=1;exitX=1;exitY=0.5;exitDx=0;exitDy=0;entryX=0;entryY=0.5;entryDx=0;entryDy=0;" parent="1" source="L3VqqMxLOk5BLTr2aD1z-151" target="L3VqqMxLOk5BLTr2aD1z-150" edge="1">
          <mxGeometry relative="1" as="geometry" />
        </mxCell>
        <mxCell id="L3VqqMxLOk5BLTr2aD1z-168" value="t10" style="edgeLabel;html=1;align=center;verticalAlign=middle;resizable=0;points=[];" parent="L3VqqMxLOk5BLTr2aD1z-162" vertex="1" connectable="0">
          <mxGeometry x="-0.0794" y="-1" relative="1" as="geometry">
            <mxPoint as="offset" />
          </mxGeometry>
        </mxCell>
        <mxCell id="L3VqqMxLOk5BLTr2aD1z-151" value="&lt;div&gt;v7&lt;/div&gt;&lt;div&gt;m7 = p8+10p11+10p12+10p13&lt;/div&gt;&lt;div&gt;pre(v7) = {v0, v1,v2}&lt;/div&gt;&lt;div&gt;pi(v7) = p8+10p11+10p12+10p13&lt;/div&gt;" style="rounded=0;whiteSpace=wrap;html=1;" parent="1" vertex="1">
          <mxGeometry x="240" y="2550" width="140" height="100" as="geometry" />
        </mxCell>
        <mxCell id="L3VqqMxLOk5BLTr2aD1z-182" style="edgeStyle=orthogonalEdgeStyle;rounded=0;orthogonalLoop=1;jettySize=auto;html=1;exitX=0.5;exitY=1;exitDx=0;exitDy=0;" parent="1" source="L3VqqMxLOk5BLTr2aD1z-169" target="L3VqqMxLOk5BLTr2aD1z-175" edge="1">
          <mxGeometry relative="1" as="geometry">
            <mxPoint x="750" y="2450" as="targetPoint" />
            <Array as="points">
              <mxPoint x="750" y="2460" />
              <mxPoint x="750" y="2460" />
            </Array>
          </mxGeometry>
        </mxCell>
        <mxCell id="L3VqqMxLOk5BLTr2aD1z-183" value="t12" style="edgeLabel;html=1;align=center;verticalAlign=middle;resizable=0;points=[];" parent="L3VqqMxLOk5BLTr2aD1z-182" vertex="1" connectable="0">
          <mxGeometry x="-0.0618" y="1" relative="1" as="geometry">
            <mxPoint as="offset" />
          </mxGeometry>
        </mxCell>
        <mxCell id="L3VqqMxLOk5BLTr2aD1z-169" value="&lt;div&gt;v9&lt;/div&gt;&lt;div&gt;m9 = p10+10p11&lt;/div&gt;&lt;div&gt;+10p12+10p13&lt;br&gt;&lt;/div&gt;&lt;div&gt;pre(v9) = {v0, v1,v2,v3,&lt;/div&gt;&lt;div&gt;v4,v5,v6,v7,v8}&lt;/div&gt;&lt;div&gt;pi(v9) = p10+10p11&lt;/div&gt;&lt;div&gt;+10p12+10p13&lt;br&gt;&lt;/div&gt;" style="rounded=0;whiteSpace=wrap;html=1;" parent="1" vertex="1">
          <mxGeometry x="680" y="2250" width="140" height="110" as="geometry" />
        </mxCell>
        <mxCell id="L3VqqMxLOk5BLTr2aD1z-186" style="edgeStyle=orthogonalEdgeStyle;rounded=0;orthogonalLoop=1;jettySize=auto;html=1;exitX=0.25;exitY=1;exitDx=0;exitDy=0;entryX=0.25;entryY=0;entryDx=0;entryDy=0;" parent="1" source="L3VqqMxLOk5BLTr2aD1z-175" target="L3VqqMxLOk5BLTr2aD1z-184" edge="1">
          <mxGeometry relative="1" as="geometry" />
        </mxCell>
        <mxCell id="L3VqqMxLOk5BLTr2aD1z-191" value="t13" style="edgeLabel;html=1;align=center;verticalAlign=middle;resizable=0;points=[];" parent="L3VqqMxLOk5BLTr2aD1z-186" vertex="1" connectable="0">
          <mxGeometry x="-0.3559" y="-1" relative="1" as="geometry">
            <mxPoint y="7" as="offset" />
          </mxGeometry>
        </mxCell>
        <mxCell id="L3VqqMxLOk5BLTr2aD1z-187" style="edgeStyle=orthogonalEdgeStyle;rounded=0;orthogonalLoop=1;jettySize=auto;html=1;exitX=0.5;exitY=1;exitDx=0;exitDy=0;entryX=0.5;entryY=0;entryDx=0;entryDy=0;" parent="1" source="L3VqqMxLOk5BLTr2aD1z-175" target="L3VqqMxLOk5BLTr2aD1z-184" edge="1">
          <mxGeometry relative="1" as="geometry" />
        </mxCell>
        <mxCell id="L3VqqMxLOk5BLTr2aD1z-192" value="t14" style="edgeLabel;html=1;align=center;verticalAlign=middle;resizable=0;points=[];" parent="L3VqqMxLOk5BLTr2aD1z-187" vertex="1" connectable="0">
          <mxGeometry x="-0.4147" y="3" relative="1" as="geometry">
            <mxPoint x="-3" y="9" as="offset" />
          </mxGeometry>
        </mxCell>
        <mxCell id="L3VqqMxLOk5BLTr2aD1z-188" style="edgeStyle=orthogonalEdgeStyle;rounded=0;orthogonalLoop=1;jettySize=auto;html=1;exitX=0.75;exitY=1;exitDx=0;exitDy=0;entryX=0.75;entryY=0;entryDx=0;entryDy=0;" parent="1" source="L3VqqMxLOk5BLTr2aD1z-175" target="L3VqqMxLOk5BLTr2aD1z-184" edge="1">
          <mxGeometry relative="1" as="geometry" />
        </mxCell>
        <mxCell id="L3VqqMxLOk5BLTr2aD1z-193" value="t15" style="edgeLabel;html=1;align=center;verticalAlign=middle;resizable=0;points=[];" parent="L3VqqMxLOk5BLTr2aD1z-188" vertex="1" connectable="0">
          <mxGeometry x="-0.4147" y="1" relative="1" as="geometry">
            <mxPoint x="-1" y="9" as="offset" />
          </mxGeometry>
        </mxCell>
        <mxCell id="R_Y47KhbLcGqxAOQ1361-19" style="edgeStyle=orthogonalEdgeStyle;rounded=0;orthogonalLoop=1;jettySize=auto;html=1;exitX=1;exitY=0.75;exitDx=0;exitDy=0;entryX=1;entryY=0.5;entryDx=0;entryDy=0;" parent="1" source="L3VqqMxLOk5BLTr2aD1z-175" target="L3VqqMxLOk5BLTr2aD1z-185" edge="1">
          <mxGeometry relative="1" as="geometry" />
        </mxCell>
        <mxCell id="R_Y47KhbLcGqxAOQ1361-21" value="t16" style="edgeLabel;html=1;align=center;verticalAlign=middle;resizable=0;points=[];" parent="R_Y47KhbLcGqxAOQ1361-19" connectable="0" vertex="1">
          <mxGeometry x="-0.6047" y="2" relative="1" as="geometry">
            <mxPoint as="offset" />
          </mxGeometry>
        </mxCell>
        <mxCell id="L3VqqMxLOk5BLTr2aD1z-175" value="&lt;div&gt;v10&lt;/div&gt;&lt;div&gt;&lt;div&gt;m10 = p14+10p11&lt;/div&gt;+10p12+10p13&lt;/div&gt;&lt;div&gt;pre(v10) = {v0, v1,v2,v3,&lt;div&gt;v4,v5,v6,v7,v8,v9}&lt;/div&gt;&lt;/div&gt;&lt;div&gt;pi(v10) = p14+10p11&lt;/div&gt;&lt;div&gt;+10p12+10p13&lt;/div&gt;" style="rounded=0;whiteSpace=wrap;html=1;" parent="1" vertex="1">
          <mxGeometry x="680" y="2390" width="140" height="110" as="geometry" />
        </mxCell>
        <mxCell id="L3VqqMxLOk5BLTr2aD1z-184" value="&lt;div&gt;v11&lt;/div&gt;&lt;div&gt;&lt;div&gt;m11 = p15+10p11&lt;/div&gt;+10p12+10p13&lt;/div&gt;&lt;div&gt;pre(v11) = {v0, v1,v2,v3,&lt;div&gt;v4,v5,v6,v7,v8,v9,v10}&lt;/div&gt;&lt;/div&gt;&lt;div&gt;pi(v11) = p15+10p11&lt;/div&gt;&lt;div&gt;+10p12+10p13&lt;/div&gt;" style="rounded=0;whiteSpace=wrap;html=1;" parent="1" vertex="1">
          <mxGeometry x="680" y="2530" width="140" height="120" as="geometry" />
        </mxCell>
        <mxCell id="L3VqqMxLOk5BLTr2aD1z-196" style="edgeStyle=orthogonalEdgeStyle;rounded=0;orthogonalLoop=1;jettySize=auto;html=1;exitX=0;exitY=0.5;exitDx=0;exitDy=0;entryX=1;entryY=0.5;entryDx=0;entryDy=0;" parent="1" source="L3VqqMxLOk5BLTr2aD1z-185" target="L3VqqMxLOk5BLTr2aD1z-195" edge="1">
          <mxGeometry relative="1" as="geometry" />
        </mxCell>
        <mxCell id="L3VqqMxLOk5BLTr2aD1z-197" value="t17" style="edgeLabel;html=1;align=center;verticalAlign=middle;resizable=0;points=[];" parent="L3VqqMxLOk5BLTr2aD1z-196" vertex="1" connectable="0">
          <mxGeometry x="-0.1265" y="2" relative="1" as="geometry">
            <mxPoint as="offset" />
          </mxGeometry>
        </mxCell>
        <mxCell id="L3VqqMxLOk5BLTr2aD1z-185" value="&lt;div&gt;v12&lt;/div&gt;&lt;div&gt;&lt;div&gt;m12 = p16+10p11&lt;/div&gt;+10p12+10p13&lt;/div&gt;&lt;div&gt;pre(v12) = {v0, v1,v2,v3,&lt;div&gt;v4,v5,v6,v7,v8,v9,v10}&lt;/div&gt;&lt;/div&gt;&lt;div&gt;pi(v12) = p16+10p11&lt;/div&gt;&lt;div&gt;+10p12+10p13&lt;/div&gt;" style="rounded=0;whiteSpace=wrap;html=1;" parent="1" vertex="1">
          <mxGeometry x="680" y="2690" width="140" height="120" as="geometry" />
        </mxCell>
        <mxCell id="L3VqqMxLOk5BLTr2aD1z-199" value="t18" style="edgeStyle=orthogonalEdgeStyle;rounded=0;orthogonalLoop=1;jettySize=auto;html=1;exitX=0;exitY=0.5;exitDx=0;exitDy=0;entryX=1;entryY=0.5;entryDx=0;entryDy=0;" parent="1" source="L3VqqMxLOk5BLTr2aD1z-195" target="L3VqqMxLOk5BLTr2aD1z-198" edge="1">
          <mxGeometry relative="1" as="geometry" />
        </mxCell>
        <mxCell id="L3VqqMxLOk5BLTr2aD1z-195" value="&lt;div&gt;v13&lt;/div&gt;&lt;div&gt;&lt;div&gt;m13 = p17+10p11&lt;/div&gt;+10p12+10p13&lt;/div&gt;&lt;div&gt;pre(v13) = {v0, v1,v2,v3,&lt;div&gt;v4,v5,v6,v7,v8,&lt;/div&gt;&lt;div&gt;v9,v10,v12}&lt;/div&gt;&lt;/div&gt;&lt;div&gt;pi(v13) = p17+10p11&lt;/div&gt;&lt;div&gt;+10p12+10p13&lt;/div&gt;" style="rounded=0;whiteSpace=wrap;html=1;" parent="1" vertex="1">
          <mxGeometry x="460" y="2690" width="140" height="120" as="geometry" />
        </mxCell>
        <mxCell id="R_Y47KhbLcGqxAOQ1361-23" style="edgeStyle=orthogonalEdgeStyle;rounded=0;orthogonalLoop=1;jettySize=auto;html=1;exitX=0;exitY=0.5;exitDx=0;exitDy=0;" parent="1" source="L3VqqMxLOk5BLTr2aD1z-198" target="R_Y47KhbLcGqxAOQ1361-22" edge="1">
          <mxGeometry relative="1" as="geometry" />
        </mxCell>
        <mxCell id="R_Y47KhbLcGqxAOQ1361-24" value="t19" style="edgeLabel;html=1;align=center;verticalAlign=middle;resizable=0;points=[];" parent="R_Y47KhbLcGqxAOQ1361-23" connectable="0" vertex="1">
          <mxGeometry x="-0.0107" y="1" relative="1" as="geometry">
            <mxPoint y="-1" as="offset" />
          </mxGeometry>
        </mxCell>
        <mxCell id="R_Y47KhbLcGqxAOQ1361-26" style="edgeStyle=orthogonalEdgeStyle;rounded=0;orthogonalLoop=1;jettySize=auto;html=1;exitX=0.25;exitY=1;exitDx=0;exitDy=0;entryX=0.5;entryY=0;entryDx=0;entryDy=0;" parent="1" source="L3VqqMxLOk5BLTr2aD1z-198" target="R_Y47KhbLcGqxAOQ1361-25" edge="1">
          <mxGeometry relative="1" as="geometry">
            <Array as="points">
              <mxPoint x="275" y="2830" />
              <mxPoint x="90" y="2830" />
            </Array>
          </mxGeometry>
        </mxCell>
        <mxCell id="R_Y47KhbLcGqxAOQ1361-27" value="t20" style="edgeLabel;html=1;align=center;verticalAlign=middle;resizable=0;points=[];" parent="R_Y47KhbLcGqxAOQ1361-26" connectable="0" vertex="1">
          <mxGeometry x="-0.4419" y="-1" relative="1" as="geometry">
            <mxPoint x="13" as="offset" />
          </mxGeometry>
        </mxCell>
        <mxCell id="R_Y47KhbLcGqxAOQ1361-29" style="edgeStyle=orthogonalEdgeStyle;rounded=0;orthogonalLoop=1;jettySize=auto;html=1;exitX=0.5;exitY=1;exitDx=0;exitDy=0;entryX=0.5;entryY=0;entryDx=0;entryDy=0;" parent="1" source="L3VqqMxLOk5BLTr2aD1z-198" target="R_Y47KhbLcGqxAOQ1361-28" edge="1">
          <mxGeometry relative="1" as="geometry" />
        </mxCell>
        <mxCell id="R_Y47KhbLcGqxAOQ1361-30" value="t21" style="edgeLabel;html=1;align=center;verticalAlign=middle;resizable=0;points=[];" parent="R_Y47KhbLcGqxAOQ1361-29" connectable="0" vertex="1">
          <mxGeometry x="-0.2857" y="-2" relative="1" as="geometry">
            <mxPoint x="2" as="offset" />
          </mxGeometry>
        </mxCell>
        <mxCell id="R_Y47KhbLcGqxAOQ1361-36" style="edgeStyle=orthogonalEdgeStyle;rounded=0;orthogonalLoop=1;jettySize=auto;html=1;exitX=0.75;exitY=1;exitDx=0;exitDy=0;entryX=0.5;entryY=0;entryDx=0;entryDy=0;" parent="1" source="L3VqqMxLOk5BLTr2aD1z-198" target="R_Y47KhbLcGqxAOQ1361-31" edge="1">
          <mxGeometry relative="1" as="geometry">
            <Array as="points">
              <mxPoint x="345" y="2830" />
              <mxPoint x="400" y="2830" />
              <mxPoint x="400" y="2990" />
              <mxPoint x="310" y="2990" />
            </Array>
          </mxGeometry>
        </mxCell>
        <mxCell id="R_Y47KhbLcGqxAOQ1361-37" value="t22" style="edgeLabel;html=1;align=center;verticalAlign=middle;resizable=0;points=[];" parent="R_Y47KhbLcGqxAOQ1361-36" connectable="0" vertex="1">
          <mxGeometry x="-0.7913" y="1" relative="1" as="geometry">
            <mxPoint x="-1" y="1" as="offset" />
          </mxGeometry>
        </mxCell>
        <mxCell id="L3VqqMxLOk5BLTr2aD1z-198" value="&lt;div&gt;v14&lt;/div&gt;&lt;div&gt;&lt;div&gt;m14 = p18+p19&lt;/div&gt;&lt;div&gt;+10p11+10p12+10p13&lt;/div&gt;&lt;/div&gt;&lt;div&gt;pre(v14) = {v0, v1,v2,v3,&lt;div&gt;v4,v5,v6,v7,v8,&lt;/div&gt;&lt;div&gt;v9,v10,v12,v13}&lt;/div&gt;&lt;/div&gt;&lt;div&gt;pi(v14) = p18+p19&lt;/div&gt;&lt;div&gt;+10p11+10p12+10p13&lt;/div&gt;" style="rounded=0;whiteSpace=wrap;html=1;" parent="1" vertex="1">
          <mxGeometry x="240" y="2690" width="140" height="120" as="geometry" />
        </mxCell>
        <mxCell id="VCCAmzKGMnL14tvRbhTr-3" value="&lt;div&gt;&lt;font style=&quot;font-size: 22px;&quot;&gt;MIESTA&lt;/font&gt;&lt;/div&gt;&lt;div style=&quot;&quot;&gt;&lt;font style=&quot;font-size: 12px;&quot;&gt;&lt;br&gt;&lt;/font&gt;&lt;/div&gt;&lt;div align=&quot;left&quot;&gt;p1&lt;span style=&quot;white-space: pre;&quot;&gt;&#x9;&lt;/span&gt;= &lt;span style=&quot;white-space: pre;&quot;&gt;&#x9;&lt;/span&gt;Začiatok naskladnenia&lt;/div&gt;&lt;div align=&quot;left&quot;&gt;&lt;span style=&quot;white-space: pre;&quot;&gt;p2&lt;span style=&quot;white-space: pre;&quot;&gt;&#x9;&lt;/span&gt;=&lt;span style=&quot;white-space: pre;&quot;&gt;&#x9;&lt;/span&gt;Sklad skontrolovaný&lt;/span&gt;&lt;/div&gt;&lt;div align=&quot;left&quot;&gt;&lt;span style=&quot;white-space: pre;&quot;&gt;p3&lt;span style=&quot;white-space: pre;&quot;&gt;&#x9;&lt;/span&gt;=&lt;span style=&quot;white-space: pre;&quot;&gt;&#x9;&lt;/span&gt;Nedostatok surovín&lt;/span&gt;&lt;/div&gt;&lt;div align=&quot;left&quot;&gt;&lt;span style=&quot;white-space: pre;&quot;&gt;p4&lt;span style=&quot;white-space: pre;&quot;&gt;&#x9;&lt;/span&gt;=&lt;span style=&quot;white-space: pre;&quot;&gt;&#x9;&lt;/span&gt;Objednávka začatá&lt;/span&gt;&lt;/div&gt;&lt;div align=&quot;left&quot;&gt;&lt;span style=&quot;white-space: pre;&quot;&gt;p5&lt;span style=&quot;white-space: pre;&quot;&gt;&#x9;&lt;/span&gt;=&lt;span style=&quot;white-space: pre;&quot;&gt;&#x9;&lt;/span&gt;Počet raž&lt;br&gt;&lt;/span&gt;&lt;/div&gt;&lt;div align=&quot;left&quot;&gt;&lt;span style=&quot;white-space: pre;&quot;&gt;p6&lt;span style=&quot;white-space: pre;&quot;&gt;&#x9;&lt;/span&gt;=&lt;span style=&quot;white-space: pre;&quot;&gt;&#x9;&lt;/span&gt;Počet chmelu&lt;/span&gt;&lt;/div&gt;&lt;div align=&quot;left&quot;&gt;&lt;span style=&quot;white-space: pre;&quot;&gt;p7&lt;span style=&quot;white-space: pre;&quot;&gt;&#x9;&lt;/span&gt;=&lt;span style=&quot;white-space: pre;&quot;&gt;&#x9;Počet jačmeňa&lt;/span&gt;&lt;/span&gt;&lt;/div&gt;&lt;div align=&quot;left&quot;&gt;&lt;span style=&quot;white-space: pre;&quot;&gt;p8&lt;span style=&quot;white-space: pre;&quot;&gt;&#x9;&lt;/span&gt;=&lt;span style=&quot;white-space: pre;&quot;&gt;&#x9;Suroviny objednané&lt;/span&gt;&lt;/span&gt;&lt;/div&gt;&lt;div align=&quot;left&quot;&gt;&lt;span style=&quot;white-space: pre;&quot;&gt;p9&lt;span style=&quot;white-space: pre;&quot;&gt;&#x9;&lt;/span&gt;=&lt;span style=&quot;white-space: pre;&quot;&gt;&#x9;Suroviny doručené&lt;/span&gt;&lt;/span&gt;&lt;/div&gt;&lt;div align=&quot;left&quot;&gt;&lt;span style=&quot;white-space: pre;&quot;&gt;p10&lt;span style=&quot;white-space: pre;&quot;&gt;&#x9;&lt;/span&gt;=&lt;span style=&quot;white-space: pre;&quot;&gt;&#x9;&lt;/span&gt;&lt;/span&gt;&lt;span style=&quot;white-space: pre;&quot;&gt;&lt;span style=&quot;white-space: pre;&quot;&gt;Suroviny prebrané&lt;/span&gt;&lt;/span&gt;&lt;/div&gt;&lt;div align=&quot;left&quot;&gt;&lt;span style=&quot;white-space: pre;&quot;&gt;p11&lt;span style=&quot;white-space: pre;&quot;&gt;&#x9;&lt;/span&gt;=&lt;span style=&quot;white-space: pre;&quot;&gt;&#x9;Dostatok surovín&lt;/span&gt;&lt;/span&gt;&lt;/div&gt;&lt;div align=&quot;left&quot;&gt;&lt;span style=&quot;white-space: pre;&quot;&gt;p12&lt;span style=&quot;white-space: pre;&quot;&gt;&#x9;&lt;/span&gt;=&lt;span style=&quot;white-space: pre;&quot;&gt;&#x9;&lt;/span&gt;&lt;/span&gt;&lt;span style=&quot;white-space: pre;&quot;&gt;&lt;span style=&quot;white-space: pre;&quot;&gt;Suroviny v poriadku&lt;/span&gt;&lt;/span&gt;&lt;/div&gt;&lt;div align=&quot;left&quot;&gt;&lt;span style=&quot;white-space: pre;&quot;&gt;p13&lt;span style=&quot;white-space: pre;&quot;&gt;&#x9;&lt;/span&gt;=&lt;span style=&quot;white-space: pre;&quot;&gt;&#x9;Suroviny naskladnené&lt;/span&gt;&lt;/span&gt;&lt;/div&gt;&lt;div align=&quot;left&quot;&gt;&lt;span style=&quot;white-space: pre;&quot;&gt;p14&lt;span style=&quot;white-space: pre;&quot;&gt;&#x9;&lt;/span&gt;=&lt;span style=&quot;white-space: pre;&quot;&gt;&#x9;Inventár aktualizovaný &lt;/span&gt;&lt;/span&gt;&lt;/div&gt;&lt;div align=&quot;left&quot;&gt;&lt;span style=&quot;white-space: pre;&quot;&gt;p15&lt;span style=&quot;white-space: pre;&quot;&gt;&#x9;&lt;/span&gt;=&lt;span style=&quot;white-space: pre;&quot;&gt;&#x9;Naskladnenie hotové&lt;/span&gt;&lt;/span&gt;&lt;/div&gt;&lt;div align=&quot;left&quot;&gt;&lt;span style=&quot;white-space: pre;&quot;&gt;&lt;br&gt;&lt;/span&gt;&lt;/div&gt;" style="rounded=0;whiteSpace=wrap;html=1;" parent="1" vertex="1">
          <mxGeometry x="395" y="510" width="185" height="310" as="geometry" />
        </mxCell>
        <mxCell id="VCCAmzKGMnL14tvRbhTr-4" value="&lt;div align=&quot;center&quot;&gt;&lt;font style=&quot;font-size: 22px;&quot;&gt;PRECHODY&lt;/font&gt;&lt;/div&gt;&lt;div style=&quot;&quot; align=&quot;center&quot;&gt;&lt;font style=&quot;font-size: 12px;&quot;&gt;&lt;br&gt;&lt;/font&gt;&lt;/div&gt;&lt;div align=&quot;left&quot;&gt;t1 = Kontrolovanie skladu&lt;/div&gt;&lt;div align=&quot;left&quot;&gt;t2 = Rozhodnutie nedostatku&lt;br&gt;&lt;/div&gt;&lt;div align=&quot;left&quot;&gt;t3 = Výber surovín&lt;br&gt;&lt;/div&gt;&lt;div align=&quot;left&quot;&gt;&lt;span style=&quot;white-space: pre;&quot;&gt;&lt;/span&gt;t4 = Objednať raž&lt;br&gt;&lt;/div&gt;&lt;div align=&quot;left&quot;&gt;&lt;span style=&quot;white-space: pre;&quot;&gt;&lt;/span&gt;t5 = Objednať chmel&lt;br&gt;&lt;/div&gt;&lt;div align=&quot;left&quot;&gt;&lt;span style=&quot;white-space: pre;&quot;&gt;&lt;/span&gt;t6 = Objednať jačmeň&lt;br&gt;&lt;/div&gt;&lt;div align=&quot;left&quot;&gt;&lt;span style=&quot;white-space: pre;&quot;&gt;&lt;/span&gt;t7 = Objednanie surovín&lt;br&gt;&lt;/div&gt;&lt;div align=&quot;left&quot;&gt;&lt;span style=&quot;white-space: pre;&quot;&gt;&lt;/span&gt;t8 = Doručenie surovín&lt;br&gt;&lt;/div&gt;&lt;div align=&quot;left&quot;&gt;&lt;span style=&quot;white-space: pre;&quot;&gt;&lt;/span&gt;t9 = Prebratie surovín&lt;br&gt;&lt;/div&gt;&lt;div align=&quot;left&quot;&gt;&lt;span style=&quot;white-space: pre;&quot;&gt;&lt;/span&gt;t10 = Kontrola objednaných surovín&lt;br&gt;&lt;/div&gt;&lt;div align=&quot;left&quot;&gt;&lt;span style=&quot;white-space: pre;&quot;&gt;&lt;/span&gt;t11 = Rozhodnutie dostatku&lt;br&gt;&lt;/div&gt;&lt;div align=&quot;left&quot;&gt;&lt;span style=&quot;white-space: pre;&quot;&gt;&lt;/span&gt;t12 = Kontrola naskladnených surovín&lt;br&gt;&lt;/div&gt;&lt;div align=&quot;left&quot;&gt;&lt;span style=&quot;white-space: pre;&quot;&gt;&lt;/span&gt;t13 = Naskladnenie surovín&lt;br&gt;&lt;/div&gt;&lt;div align=&quot;left&quot;&gt;&lt;span style=&quot;white-space: pre;&quot;&gt;&lt;/span&gt;t14 = Zadanie inventára&lt;br&gt;&lt;/div&gt;&lt;div align=&quot;left&quot;&gt;&lt;span style=&quot;white-space: pre;&quot;&gt;&lt;/span&gt;t15 = Oboznámenie pivovarníka&lt;br&gt;&lt;/div&gt;" style="rounded=0;whiteSpace=wrap;html=1;align=left;" parent="1" vertex="1">
          <mxGeometry x="610" y="510" width="220" height="310" as="geometry" />
        </mxCell>
        <mxCell id="R_Y47KhbLcGqxAOQ1361-1" value="&lt;font style=&quot;font-size: 17px;&quot;&gt;MIESTA&lt;/font&gt;&lt;div&gt;&lt;br&gt;&lt;/div&gt;&lt;div&gt;p1 = Začiatok výroby piva&lt;/div&gt;&lt;div&gt;p2 = Čisté zrná&lt;/div&gt;p3 = Odpad&lt;div&gt;p4 = Zrná rozdrvené&lt;br&gt;&lt;/div&gt;&lt;div&gt;p5 =&amp;nbsp;&lt;span style=&quot;background-color: initial;&quot;&gt;Zrná namočené&lt;/span&gt;&lt;br&gt;&lt;/div&gt;&lt;div&gt;p6 =&amp;nbsp;&lt;span style=&quot;background-color: initial;&quot;&gt;Zrná vyklíčené&lt;/span&gt;&lt;br&gt;&lt;/div&gt;&lt;div&gt;p7 =&amp;nbsp;&lt;span style=&quot;background-color: initial;&quot;&gt;Zrná usušené&lt;/span&gt;&lt;br&gt;&lt;/div&gt;&lt;div&gt;p8 = Slad zmiešaný&lt;br&gt;&lt;/div&gt;&lt;div&gt;p9 = Enzýmy štiepené&lt;br&gt;&lt;/div&gt;&lt;div&gt;p10 = Enzymácia zastavená&amp;nbsp;&lt;br&gt;&lt;/div&gt;&lt;div&gt;p11 = Zmes vyfiltrovaná&lt;br&gt;&lt;/div&gt;&lt;div&gt;p12 = Prenesené do kotlov&lt;br&gt;&lt;/div&gt;&lt;div&gt;p13 = Pripravené na varenie&lt;br&gt;&lt;/div&gt;&lt;div&gt;p14 = Varenie začaté&lt;br&gt;&lt;/div&gt;&lt;div&gt;p15 = Vyhodnotenie teploty&lt;br&gt;&lt;/div&gt;&lt;div&gt;p16 = Teplota zregulovaná&lt;br&gt;&lt;/div&gt;&lt;div&gt;p17 = Fermentácia dokončená&lt;br&gt;&lt;/div&gt;&lt;div&gt;p18 = Pivo vyzreté&lt;br&gt;&lt;/div&gt;&lt;div&gt;p19 = Pivo očistené&lt;br&gt;&lt;/div&gt;&lt;div&gt;p20 = Kontrola vykonaná&lt;/div&gt;&lt;div&gt;p21 = Kvalita nedostačujúca&lt;/div&gt;&lt;div&gt;&lt;span style=&quot;background-color: initial;&quot;&gt;p22 =&amp;nbsp;&lt;/span&gt;&lt;span style=&quot;background-color: initial;&quot;&gt;Kvalita dostačujúca&lt;/span&gt;&lt;/div&gt;&lt;div&gt;&lt;span style=&quot;background-color: initial;&quot;&gt;p23 =&amp;nbsp;&lt;/span&gt;Vyrobené pivo&lt;br&gt;&lt;/div&gt;" style="rounded=0;whiteSpace=wrap;html=1;align=left;" parent="1" vertex="1">
          <mxGeometry x="25" y="1800" width="185" height="380" as="geometry" />
        </mxCell>
        <mxCell id="R_Y47KhbLcGqxAOQ1361-2" value="&lt;font style=&quot;font-size: 17px;&quot;&gt;PRECHODY&lt;/font&gt;&lt;div style=&quot;&quot;&gt;&lt;br&gt;&lt;/div&gt;&lt;div&gt;t1 = Čistenie zŕn&lt;/div&gt;&lt;div&gt;t2 = Rozdrvenie zŕn&lt;br&gt;&lt;/div&gt;&lt;div&gt;t3 = Namočenie zŕn&lt;br&gt;&lt;/div&gt;&lt;div&gt;t4 = Klíčenie&amp;nbsp;&lt;span style=&quot;background-color: initial;&quot;&gt;zŕn&lt;/span&gt;&lt;br&gt;&lt;/div&gt;&lt;div&gt;t5 = Sušenie&amp;nbsp;&lt;span style=&quot;background-color: initial;&quot;&gt;zŕn&lt;/span&gt;&lt;br&gt;&lt;/div&gt;&lt;div&gt;t6 = Zmiešanie sladu&lt;br&gt;&lt;/div&gt;&lt;div&gt;t7 = Štiepenie enzýmov&lt;br&gt;&lt;/div&gt;&lt;div&gt;t8 = Zastavenie enzymácie&amp;nbsp;&lt;br&gt;&lt;/div&gt;&lt;div&gt;t9 = Filtrovanie zmesi&lt;br&gt;&lt;/div&gt;&lt;div&gt;t10 = Prenos do kotla&amp;nbsp;&lt;br&gt;&lt;/div&gt;&lt;div&gt;t11 = Varenie Pilsner&lt;br&gt;&lt;/div&gt;&lt;div&gt;t12 =&amp;nbsp;&lt;span style=&quot;background-color: initial;&quot;&gt;Varenie IPA&lt;/span&gt;&lt;br&gt;&lt;/div&gt;&lt;div&gt;t13 =&amp;nbsp;&lt;span style=&quot;background-color: initial;&quot;&gt;Varenie Limitovane&lt;/span&gt;&lt;br&gt;&lt;/div&gt;&lt;div&gt;t14 =&amp;nbsp;&lt;span style=&quot;background-color: initial;&quot;&gt;Varenie + pridanie chmelu&lt;/span&gt;&lt;br&gt;&lt;/div&gt;&lt;div&gt;t15 = Kontrola teploty&lt;br&gt;&lt;/div&gt;&lt;div&gt;t16 = Zníženie&lt;span style=&quot;background-color: initial;&quot;&gt;&amp;nbsp;&lt;/span&gt;&lt;span style=&quot;background-color: initial;&quot;&gt;teploty&lt;/span&gt;&lt;br&gt;&lt;/div&gt;&lt;div&gt;t17 = Zvýšenie&lt;span style=&quot;background-color: initial;&quot;&gt;&amp;nbsp;&lt;/span&gt;&lt;span style=&quot;background-color: initial;&quot;&gt;teploty&lt;/span&gt;&lt;br&gt;&lt;/div&gt;&lt;div&gt;t18 = Stabilizovanie&lt;span style=&quot;background-color: initial;&quot;&gt;&amp;nbsp;&lt;/span&gt;&lt;span style=&quot;background-color: initial;&quot;&gt;teploty&lt;/span&gt;&lt;br&gt;&lt;/div&gt;&lt;div&gt;t19 = Fermentácia&amp;nbsp;&lt;br&gt;&lt;/div&gt;&lt;div&gt;t20 = Zrenie&lt;/div&gt;" style="rounded=0;whiteSpace=wrap;html=1;align=left;" parent="1" vertex="1">
          <mxGeometry x="240" y="1800" width="185" height="380" as="geometry" />
        </mxCell>
        <mxCell id="R_Y47KhbLcGqxAOQ1361-3" value="&lt;font style=&quot;font-size: 17px;&quot;&gt;PRECHODY&lt;/font&gt;&lt;div style=&quot;&quot;&gt;&lt;span style=&quot;background-color: initial;&quot;&gt;&amp;nbsp;&lt;/span&gt;&lt;br&gt;&lt;/div&gt;&lt;div&gt;&lt;span style=&quot;background-color: initial;&quot;&gt;t21 = Čistenie&amp;nbsp;&lt;/span&gt;&lt;br&gt;&lt;/div&gt;&lt;div&gt;t22 = Kontrola kvality&lt;br&gt;&lt;/div&gt;&lt;div&gt;t23 = Neakceptovanie kvality&lt;/div&gt;&lt;div&gt;&lt;div&gt;&lt;span style=&quot;background-color: initial;&quot;&gt;t24 = A&lt;/span&gt;&lt;span style=&quot;background-color: initial;&quot;&gt;kceptovanie kvality&lt;/span&gt;&lt;br&gt;&lt;/div&gt;&lt;div&gt;t25 =&amp;nbsp;&lt;span style=&quot;background-color: initial;&quot;&gt;Oboznámenie distribútora&lt;/span&gt;&lt;/div&gt;&lt;/div&gt;&lt;div&gt;&lt;span style=&quot;color: rgba(0, 0, 0, 0); font-family: monospace; font-size: 0px; text-wrap: nowrap;&quot;&gt;%3CmxGraphModel%3E%3Croot%3E%3CmxCell%20id%3D%220%22%2F%3E%3CmxCell%20id%3D%221%22%20parent%3D%220%22%2F%3E%3CmxCell%20id%3D%222%22%20value%3D%22%26lt%3Bfont%20style%3D%26quot%3Bfont-size%3A%2017px%3B%26quot%3B%26gt%3BPRECHODY%26lt%3B%2Ffont%26gt%3B%26lt%3Bdiv%20style%3D%26quot%3B%26quot%3B%26gt%3B%26lt%3Bbr%26gt%3B%26lt%3B%2Fdiv%26gt%3B%26lt%3Bdiv%26gt%3Bt1%20%3D%26amp%3Bnbsp%3B%26lt%3B%2Fdiv%26gt%3B%26lt%3Bdiv%26gt%3Bt2%20%3D%26amp%3Bnbsp%3B%26lt%3Bbr%26gt%3B%26lt%3B%2Fdiv%26gt%3B%26lt%3Bdiv%26gt%3Bt3%20%3D%26amp%3Bnbsp%3B%26lt%3Bbr%26gt%3B%26lt%3B%2Fdiv%26gt%3B%26lt%3Bdiv%26gt%3Bt4%20%3D%26amp%3Bnbsp%3B%26lt%3Bbr%26gt%3B%26lt%3B%2Fdiv%26gt%3B%26lt%3Bdiv%26gt%3Bt5%20%3D%26amp%3Bnbsp%3B%26lt%3Bbr%26gt%3B%26lt%3B%2Fdiv%26gt%3B%26lt%3Bdiv%26gt%3Bt6%20%3D%26amp%3Bnbsp%3B%26lt%3Bbr%26gt%3B%26lt%3B%2Fdiv%26gt%3B%26lt%3Bdiv%26gt%3Bt7%20%3D%26amp%3Bnbsp%3B%26lt%3Bbr%26gt%3B%26lt%3B%2Fdiv%26gt%3B%26lt%3Bdiv%26gt%3Bt8%20%3D%26amp%3Bnbsp%3B%26lt%3Bbr%26gt%3B%26lt%3B%2Fdiv%26gt%3B%26lt%3Bdiv%26gt%3Bt9%20%3D%26amp%3Bnbsp%3B%26lt%3Bbr%26gt%3B%26lt%3B%2Fdiv%26gt%3B%26lt%3Bdiv%26gt%3Bt10%20%3D%26amp%3Bnbsp%3B%26lt%3Bbr%26gt%3B%26lt%3B%2Fdiv%26gt%3B%26lt%3Bdiv%26gt%3Bt11%20%3D%26amp%3Bnbsp%3B%26lt%3Bbr%26gt%3B%26lt%3B%2Fdiv%26gt%3B%26lt%3Bdiv%26gt%3Bt12%20%3D%26amp%3Bnbsp%3B%26lt%3Bbr%26gt%3B%26lt%3B%2Fdiv%26gt%3B%26lt%3Bdiv%26gt%3Bt13%20%3D%26amp%3Bnbsp%3B%26lt%3Bbr%26gt%3B%26lt%3B%2Fdiv%26gt%3B%26lt%3Bdiv%26gt%3Bt14%20%3D%26amp%3Bnbsp%3B%26lt%3Bbr%26gt%3B%26lt%3B%2Fdiv%26gt%3B%26lt%3Bdiv%26gt%3Bt15%20%3D%26amp%3Bnbsp%3B%26lt%3Bbr%26gt%3B%26lt%3B%2Fdiv%26gt%3B%26lt%3Bdiv%26gt%3Bt16%20%3D%26amp%3Bnbsp%3B%26lt%3Bbr%26gt%3B%26lt%3B%2Fdiv%26gt%3B%26lt%3Bdiv%26gt%3Bt17%20%3D%26amp%3Bnbsp%3B%26lt%3Bbr%26gt%3B%26lt%3B%2Fdiv%26gt%3B%26lt%3Bdiv%26gt%3Bt18%20%3D%26amp%3Bnbsp%3B%26lt%3Bbr%26gt%3B%26lt%3B%2Fdiv%26gt%3B%26lt%3Bdiv%26gt%3Bt19%20%3D%26amp%3Bnbsp%3B%26lt%3Bbr%26gt%3B%26lt%3B%2Fdiv%26gt%3B%26lt%3Bdiv%26gt%3Bt20%20%3D%26amp%3Bnbsp%3B%26lt%3Bbr%26gt%3B%26lt%3B%2Fdiv%26gt%3B%26lt%3Bdiv%26gt%3Bt21%20%3D%26amp%3Bnbsp%3B%26lt%3Bbr%26gt%3B%26lt%3B%2Fdiv%26gt%3B%26lt%3Bdiv%26gt%3Bt22%3D%26amp%3Bnbsp%3B%26lt%3Bbr%26gt%3B%26lt%3B%2Fdiv%26gt%3B%26lt%3Bdiv%26gt%3Bt23%20%3D%26amp%3Bnbsp%3B%26lt%3Bbr%26gt%3B%26lt%3B%2Fdiv%26gt%3B%22%20style%3D%22rounded%3D0%3BwhiteSpace%3Dwrap%3Bhtml%3D1%3Balign%3Dleft%3B%22%20vertex%3D%221%22%20parent%3D%221%22%3E%3CmxGeometry%20x%3D%22240%22%20y%3D%221800%22%20width%3D%22185%22%20height%3D%22380%22%20as%3D%22geometry%22%2F%3E%3C%2FmxCell%3E%3C%2Froot%3E%3C%2FmxGraphModel%3E&lt;/span&gt;&lt;br&gt;&lt;/div&gt;" style="rounded=0;whiteSpace=wrap;html=1;align=left;" parent="1" vertex="1">
          <mxGeometry x="425" y="2030" width="175" height="150" as="geometry" />
        </mxCell>
        <mxCell id="R_Y47KhbLcGqxAOQ1361-22" value="&lt;div&gt;v15&lt;/div&gt;&lt;div&gt;&lt;div&gt;m15 = p19+p20&lt;/div&gt;&lt;div&gt;+10p11+10p12+10p13&lt;/div&gt;&lt;/div&gt;&lt;div&gt;pre(v15) = {v0, v1,v2,v3,&lt;div&gt;v4,v5,v6,v7,v8,&lt;/div&gt;&lt;div&gt;v9,v10,v12,v13,v14}&lt;/div&gt;&lt;/div&gt;&lt;div&gt;pi(v15) = p19+p20&lt;/div&gt;&lt;div&gt;+10p11+10p12+10p13&lt;/div&gt;" style="rounded=0;whiteSpace=wrap;html=1;" parent="1" vertex="1">
          <mxGeometry x="20" y="2690" width="140" height="120" as="geometry" />
        </mxCell>
        <mxCell id="R_Y47KhbLcGqxAOQ1361-42" style="edgeStyle=orthogonalEdgeStyle;rounded=0;orthogonalLoop=1;jettySize=auto;html=1;exitX=0.5;exitY=1;exitDx=0;exitDy=0;" parent="1" source="R_Y47KhbLcGqxAOQ1361-25" target="R_Y47KhbLcGqxAOQ1361-35" edge="1">
          <mxGeometry relative="1" as="geometry" />
        </mxCell>
        <mxCell id="R_Y47KhbLcGqxAOQ1361-59" value="t23" style="edgeLabel;html=1;align=center;verticalAlign=middle;resizable=0;points=[];" parent="R_Y47KhbLcGqxAOQ1361-42" connectable="0" vertex="1">
          <mxGeometry x="-0.4217" relative="1" as="geometry">
            <mxPoint as="offset" />
          </mxGeometry>
        </mxCell>
        <mxCell id="R_Y47KhbLcGqxAOQ1361-25" value="&lt;div&gt;v16&lt;/div&gt;&lt;div&gt;&lt;div&gt;m16 = p19+p20+wp21&lt;/div&gt;&lt;div&gt;+10p11+10p12+10p13&lt;/div&gt;&lt;/div&gt;&lt;div&gt;pre(v16) = {v0, v1,v2,v3,&lt;div&gt;v4,v5,v6,v7,v8,&lt;/div&gt;&lt;div&gt;v9,v10,v12,v13,v14}&lt;/div&gt;&lt;/div&gt;&lt;div&gt;pi(v16) = p19+p20+wp21&lt;/div&gt;&lt;div&gt;+10p11+10p12+10p13&lt;/div&gt;" style="rounded=0;whiteSpace=wrap;html=1;" parent="1" vertex="1">
          <mxGeometry x="20" y="2850" width="140" height="120" as="geometry" />
        </mxCell>
        <mxCell id="R_Y47KhbLcGqxAOQ1361-39" style="edgeStyle=orthogonalEdgeStyle;rounded=0;orthogonalLoop=1;jettySize=auto;html=1;exitX=0.25;exitY=1;exitDx=0;exitDy=0;entryX=1;entryY=0.25;entryDx=0;entryDy=0;" parent="1" edge="1">
          <mxGeometry relative="1" as="geometry">
            <mxPoint x="275" y="2970" as="sourcePoint" />
            <mxPoint x="160" y="3040" as="targetPoint" />
            <Array as="points">
              <mxPoint x="275" y="2990" />
              <mxPoint x="220" y="2990" />
              <mxPoint x="220" y="3040" />
            </Array>
          </mxGeometry>
        </mxCell>
        <mxCell id="R_Y47KhbLcGqxAOQ1361-58" value="t23" style="edgeLabel;html=1;align=center;verticalAlign=middle;resizable=0;points=[];" parent="R_Y47KhbLcGqxAOQ1361-39" connectable="0" vertex="1">
          <mxGeometry x="0.067" y="2" relative="1" as="geometry">
            <mxPoint y="-14" as="offset" />
          </mxGeometry>
        </mxCell>
        <mxCell id="R_Y47KhbLcGqxAOQ1361-28" value="&lt;div&gt;v17&lt;/div&gt;&lt;div&gt;&lt;div&gt;m17 = p19+p20+wp22&lt;/div&gt;&lt;div&gt;+10p11+10p12+10p13&lt;/div&gt;&lt;/div&gt;&lt;div&gt;pre(v17) = {v0, v1,v2,v3,&lt;div&gt;v4,v5,v6,v7,v8,&lt;/div&gt;&lt;div&gt;v9,v10,v12,v13,v14}&lt;/div&gt;&lt;/div&gt;&lt;div&gt;pi(v17) = p19+p20+wp22&lt;/div&gt;&lt;div&gt;+10p11+10p12+10p13&lt;/div&gt;" style="rounded=0;whiteSpace=wrap;html=1;" parent="1" vertex="1">
          <mxGeometry x="240" y="2850" width="140" height="120" as="geometry" />
        </mxCell>
        <mxCell id="R_Y47KhbLcGqxAOQ1361-38" style="edgeStyle=orthogonalEdgeStyle;rounded=0;orthogonalLoop=1;jettySize=auto;html=1;exitX=0;exitY=0.5;exitDx=0;exitDy=0;entryX=1;entryY=0.5;entryDx=0;entryDy=0;" parent="1" source="R_Y47KhbLcGqxAOQ1361-31" target="R_Y47KhbLcGqxAOQ1361-35" edge="1">
          <mxGeometry relative="1" as="geometry">
            <Array as="points">
              <mxPoint x="200" y="3070" />
              <mxPoint x="200" y="3070" />
            </Array>
          </mxGeometry>
        </mxCell>
        <mxCell id="R_Y47KhbLcGqxAOQ1361-41" value="t23" style="edgeLabel;html=1;align=center;verticalAlign=middle;resizable=0;points=[];" parent="R_Y47KhbLcGqxAOQ1361-38" connectable="0" vertex="1">
          <mxGeometry x="-0.125" y="-1" relative="1" as="geometry">
            <mxPoint as="offset" />
          </mxGeometry>
        </mxCell>
        <mxCell id="R_Y47KhbLcGqxAOQ1361-31" value="&lt;div&gt;v18&lt;/div&gt;&lt;div&gt;&lt;div&gt;m18 = p19+p20+wp23&lt;/div&gt;&lt;div&gt;+10p11+10p12+10p13&lt;/div&gt;&lt;/div&gt;&lt;div&gt;pre(v18) = {v0, v1,v2,v3,&lt;div&gt;v4,v5,v6,v7,v8,&lt;/div&gt;&lt;div&gt;v9,v10,v12,v13,v14}&lt;/div&gt;&lt;/div&gt;&lt;div&gt;pi(v18) = p19+p20+wp23&lt;/div&gt;&lt;div&gt;+10p11+10p12+10p13&lt;/div&gt;" style="rounded=0;whiteSpace=wrap;html=1;" parent="1" vertex="1">
          <mxGeometry x="240" y="3010" width="140" height="120" as="geometry" />
        </mxCell>
        <mxCell id="R_Y47KhbLcGqxAOQ1361-45" style="edgeStyle=orthogonalEdgeStyle;rounded=0;orthogonalLoop=1;jettySize=auto;html=1;exitX=0.5;exitY=1;exitDx=0;exitDy=0;entryX=0.5;entryY=0;entryDx=0;entryDy=0;" parent="1" source="R_Y47KhbLcGqxAOQ1361-35" target="R_Y47KhbLcGqxAOQ1361-44" edge="1">
          <mxGeometry relative="1" as="geometry" />
        </mxCell>
        <mxCell id="R_Y47KhbLcGqxAOQ1361-60" value="t24" style="edgeLabel;html=1;align=center;verticalAlign=middle;resizable=0;points=[];" parent="R_Y47KhbLcGqxAOQ1361-45" connectable="0" vertex="1">
          <mxGeometry x="-0.2043" relative="1" as="geometry">
            <mxPoint as="offset" />
          </mxGeometry>
        </mxCell>
        <mxCell id="R_Y47KhbLcGqxAOQ1361-35" value="&lt;div&gt;v19&lt;/div&gt;&lt;div&gt;&lt;div&gt;m19 = p19+p24&lt;/div&gt;&lt;div&gt;+10p11+10p12+10p13&lt;/div&gt;&lt;/div&gt;&lt;div&gt;pre(v19) = {v0, v1,v2,v3,&lt;div&gt;v4,v5,v6,v7,v8,v9,v10,v12,&lt;/div&gt;&lt;div&gt;v13,v14,v16,v17,v18}&lt;/div&gt;&lt;/div&gt;&lt;div&gt;pi(v19) = p19+p24&lt;/div&gt;&lt;div&gt;+10p11+10p12+10p13&lt;/div&gt;" style="rounded=0;whiteSpace=wrap;html=1;" parent="1" vertex="1">
          <mxGeometry x="20" y="3010" width="140" height="120" as="geometry" />
        </mxCell>
        <mxCell id="R_Y47KhbLcGqxAOQ1361-48" value="" style="edgeStyle=orthogonalEdgeStyle;rounded=0;orthogonalLoop=1;jettySize=auto;html=1;" parent="1" source="R_Y47KhbLcGqxAOQ1361-44" target="R_Y47KhbLcGqxAOQ1361-47" edge="1">
          <mxGeometry relative="1" as="geometry" />
        </mxCell>
        <mxCell id="R_Y47KhbLcGqxAOQ1361-61" value="t25" style="edgeLabel;html=1;align=center;verticalAlign=middle;resizable=0;points=[];" parent="R_Y47KhbLcGqxAOQ1361-48" connectable="0" vertex="1">
          <mxGeometry x="-0.088" y="2" relative="1" as="geometry">
            <mxPoint as="offset" />
          </mxGeometry>
        </mxCell>
        <mxCell id="R_Y47KhbLcGqxAOQ1361-44" value="&lt;div&gt;v20&lt;/div&gt;&lt;div&gt;&lt;div&gt;m20 = p25&lt;/div&gt;&lt;div&gt;+10p11+10p12+10p13&lt;/div&gt;&lt;/div&gt;&lt;div&gt;pre(v20) = {v0, v1,v2,v3,&lt;div&gt;v4,v5,v6,v7,v8,v9,v10,v12,&lt;/div&gt;&lt;div&gt;v13,v14,v16,v17,v18,v19}&lt;/div&gt;&lt;/div&gt;&lt;div&gt;pi(v20) = p25&lt;/div&gt;&lt;div&gt;+10p11+10p12+10p13&lt;/div&gt;" style="rounded=0;whiteSpace=wrap;html=1;" parent="1" vertex="1">
          <mxGeometry x="20" y="3170" width="140" height="120" as="geometry" />
        </mxCell>
        <mxCell id="R_Y47KhbLcGqxAOQ1361-47" value="&lt;div&gt;v21&lt;/div&gt;&lt;div&gt;&lt;div&gt;m21 = p26&lt;/div&gt;&lt;div&gt;+10p11+10p12+10p13&lt;/div&gt;&lt;/div&gt;&lt;div&gt;pre(v21) = {v0, v1,v2,v3,v4,&lt;div&gt;v5,v6,v7,v8,v9,v10,v12,v13,&lt;/div&gt;&lt;div&gt;v14,v16,v17,v18,v19,v20}&lt;/div&gt;&lt;/div&gt;&lt;div&gt;pi(v21) = p26&lt;/div&gt;&lt;div&gt;+10p11+10p12+10p13&lt;/div&gt;" style="rounded=0;whiteSpace=wrap;html=1;" parent="1" vertex="1">
          <mxGeometry x="240" y="3170" width="160" height="120" as="geometry" />
        </mxCell>
        <mxCell id="R_Y47KhbLcGqxAOQ1361-50" value="&lt;font style=&quot;font-size: 17px;&quot;&gt;MIESTA&lt;/font&gt;&lt;div&gt;&lt;br&gt;&lt;/div&gt;&lt;div&gt;p1 = Začiatok balenia&lt;/div&gt;&lt;div&gt;p2 = Pivo pripravené&lt;/div&gt;&lt;div&gt;&lt;span style=&quot;background-color: initial;&quot;&gt;p3 = Začiatok stáčania&lt;/span&gt;&lt;/div&gt;&lt;div&gt;p4 = Fľaša naplnená&lt;/div&gt;&lt;div&gt;&lt;span style=&quot;background-color: initial;&quot;&gt;p5 = Fľaša zatvorená&lt;/span&gt;&lt;/div&gt;&lt;div&gt;p6 =&amp;nbsp;&lt;span style=&quot;background-color: initial;&quot;&gt;Plechovka naplnená&lt;/span&gt;&lt;br&gt;&lt;/div&gt;&lt;div&gt;p7 =&amp;nbsp;&lt;span style=&quot;background-color: initial;&quot;&gt;Plechovka zatvorená&lt;/span&gt;&lt;br&gt;&lt;/div&gt;&lt;div&gt;p8 =&amp;nbsp;&lt;span style=&quot;background-color: initial;&quot;&gt;Sud naplnený&lt;/span&gt;&lt;br&gt;&lt;/div&gt;&lt;div&gt;p9 =&amp;nbsp;&lt;span style=&quot;background-color: initial;&quot;&gt;Sud zatvorený&lt;/span&gt;&lt;br&gt;&lt;/div&gt;&lt;div&gt;p10 = Stáčanie ukončené&amp;nbsp;&lt;br&gt;&lt;/div&gt;&lt;div&gt;p11 = Sklad fliaš&lt;br&gt;&lt;/div&gt;&lt;div&gt;p12 = Sklad plechoviek&lt;br&gt;&lt;/div&gt;&lt;div&gt;p13 = Sklad sudov&lt;br&gt;&lt;/div&gt;&lt;div&gt;p14 = Obaly skontrolované&lt;br&gt;&lt;/div&gt;&lt;div&gt;p15 = Obaly zahodené&lt;br&gt;&lt;/div&gt;&lt;div&gt;p16 = Obaly prijaté&lt;br&gt;&lt;/div&gt;&lt;div&gt;p17 = Balenie ukončené&lt;/div&gt;&lt;div&gt;&lt;span style=&quot;background-color: initial;&quot;&gt;p18 = Očakávanie platby&lt;/span&gt;&lt;/div&gt;&lt;div&gt;p19 = Očakávanie naloženia&lt;br&gt;&lt;/div&gt;&lt;div&gt;p20 = Platba prijatá&lt;/div&gt;&lt;div&gt;p21 = Počet fliaš&lt;/div&gt;&lt;div&gt;&lt;span style=&quot;background-color: initial;&quot;&gt;p22 = Počet plechoviek&lt;/span&gt;&lt;/div&gt;&lt;div&gt;&lt;span style=&quot;background-color: initial;&quot;&gt;p23 = Počet sudov&lt;/span&gt;&lt;br&gt;&lt;/div&gt;&lt;div&gt;&lt;span style=&quot;background-color: initial;&quot;&gt;p24 = Objednávka naložená&lt;/span&gt;&lt;/div&gt;&lt;div&gt;&lt;span style=&quot;background-color: initial;&quot;&gt;p25 = Objednávka odoslaná&lt;/span&gt;&lt;/div&gt;&lt;div&gt;p26 = Objednávka doručená&lt;/div&gt;" style="rounded=0;whiteSpace=wrap;html=1;align=left;" parent="1" vertex="1">
          <mxGeometry x="425" y="2840" width="185" height="430" as="geometry" />
        </mxCell>
        <mxCell id="R_Y47KhbLcGqxAOQ1361-51" value="&lt;font style=&quot;font-size: 17px;&quot;&gt;PRECHODY&lt;/font&gt;&lt;div style=&quot;&quot;&gt;&lt;br&gt;&lt;/div&gt;&lt;div&gt;t1 = Príprava na stáčanie&lt;/div&gt;&lt;div&gt;t&lt;span style=&quot;background-color: initial;&quot;&gt;2 = Stáčanie piva&lt;/span&gt;&lt;/div&gt;&lt;div&gt;t3 = Plnenie fliaš&lt;/div&gt;&lt;div&gt;&lt;span style=&quot;background-color: initial;&quot;&gt;t4 = Zatváranie fliaš&lt;/span&gt;&lt;/div&gt;&lt;div&gt;t5 = Etiketovanie fliaš&lt;br&gt;&lt;/div&gt;&lt;div&gt;t6 =&amp;nbsp;&lt;span style=&quot;background-color: initial;&quot;&gt;Plnenie plechoviek&lt;/span&gt;&lt;br&gt;&lt;/div&gt;&lt;div&gt;t7 =&amp;nbsp;&lt;span style=&quot;background-color: initial;&quot;&gt;Zatváranie&amp;nbsp;&lt;/span&gt;&lt;span style=&quot;background-color: initial;&quot;&gt;plechoviek&lt;/span&gt;&lt;br&gt;&lt;/div&gt;&lt;div&gt;t8 =&amp;nbsp;&lt;span style=&quot;background-color: initial;&quot;&gt;Etiketovanie&amp;nbsp;&lt;/span&gt;&lt;span style=&quot;background-color: initial;&quot;&gt;plechoviek&lt;/span&gt;&lt;br&gt;&lt;/div&gt;&lt;div&gt;t9 =&amp;nbsp;&lt;span style=&quot;background-color: initial;&quot;&gt;Plnenie sudov&lt;/span&gt;&lt;br&gt;&lt;/div&gt;&lt;div&gt;t10 =&amp;nbsp;&lt;span style=&quot;background-color: initial;&quot;&gt;Zatváranie&amp;nbsp;&lt;/span&gt;&lt;span style=&quot;background-color: initial;&quot;&gt;sudov&lt;/span&gt;&lt;br&gt;&lt;/div&gt;&lt;div&gt;t11 =&amp;nbsp;&lt;span style=&quot;background-color: initial;&quot;&gt;Etiketovanie&amp;nbsp;&lt;/span&gt;&lt;span style=&quot;background-color: initial;&quot;&gt;sudov&lt;/span&gt;&lt;br&gt;&lt;/div&gt;&lt;div&gt;t12 =&amp;nbsp;&lt;span style=&quot;background-color: initial;&quot;&gt;Kontrola obalov&lt;/span&gt;&lt;br&gt;&lt;/div&gt;&lt;div&gt;t13 = Zahodenie fľaše&lt;br&gt;&lt;/div&gt;&lt;div&gt;t14 =&amp;nbsp;&lt;span style=&quot;background-color: initial;&quot;&gt;Zahodenie&lt;/span&gt;&lt;span style=&quot;background-color: initial;&quot;&gt;&amp;nbsp;plechovky&lt;/span&gt;&lt;br&gt;&lt;/div&gt;&lt;div&gt;t15 =&amp;nbsp;&amp;nbsp;&lt;span style=&quot;background-color: initial;&quot;&gt;Zahodenie&lt;/span&gt;&lt;span style=&quot;background-color: initial;&quot;&gt;&amp;nbsp;sudu&lt;/span&gt;&lt;br&gt;&lt;/div&gt;&lt;div&gt;t16 = Prijatie obalov&lt;br&gt;&lt;/div&gt;&lt;div&gt;t17 = Balenie na paletu&lt;br&gt;&lt;/div&gt;&lt;div&gt;t18 = Prijatie objednávky&lt;br&gt;&lt;/div&gt;&lt;div&gt;t19 = Prijatie platby&lt;br&gt;&lt;/div&gt;&lt;div&gt;t20 = Pridať fľašu&lt;/div&gt;&lt;div&gt;&lt;div&gt;t21 = Pridať plechovku&lt;br&gt;&lt;/div&gt;&lt;div&gt;t22 = Pridať sud&amp;nbsp;&lt;br&gt;&lt;/div&gt;&lt;div&gt;t23 = Naloženie prepravcovi&lt;br&gt;&lt;/div&gt;&lt;div&gt;t24 = Dokončenie objednávky&lt;/div&gt;&lt;div&gt;t25 =&amp;nbsp;&lt;span style=&quot;background-color: initial;&quot;&gt;&amp;nbsp;&lt;/span&gt;&lt;span style=&quot;background-color: initial;&quot;&gt;&amp;nbsp;Doručenie objednávky&lt;/span&gt;&lt;/div&gt;&lt;/div&gt;" style="rounded=0;whiteSpace=wrap;html=1;align=left;" parent="1" vertex="1">
          <mxGeometry x="645" y="2840" width="185" height="430" as="geometry" />
        </mxCell>
      </root>
    </mxGraphModel>
  </diagram>
</mxfile>
